<mxfile modified="2023-10-08T03:56:55.376Z" host="app.diagrams.net" agent="Mozilla/5.0 (Windows NT 10.0; Win64; x64) AppleWebKit/537.36 (KHTML, like Gecko) Chrome/117.0.0.0 Safari/537.36" etag="_YIGblSN4SLKBsvJM8fF" version="22.0.4" type="github">
  <diagram id="WI9T0HZ2pTsCkuznbFz-" name="Page-1">
    <mxGraphModel dx="4634" dy="1950" grid="0" gridSize="10" guides="0" tooltips="0" connect="1" arrows="1" fold="1" page="0" pageScale="1" pageWidth="1169" pageHeight="827" math="0" shadow="0">
      <root>
        <mxCell id="0" />
        <mxCell id="1" parent="0" />
        <mxCell id="7XDqLgwCtR31HvtdAByz-7" value="" style="rounded=0;whiteSpace=wrap;html=1;labelBackgroundColor=none;textOpacity=0;strokeWidth=0.5;strokeColor=#0000CC;" vertex="1" parent="1">
          <mxGeometry x="-2690" y="-628" width="257" height="120" as="geometry" />
        </mxCell>
        <mxCell id="p4TXbPgcI1VuwZD0pCjf-13" value="" style="rounded=0;whiteSpace=wrap;html=1;fillColor=none;dashed=1;strokeWidth=0.7;strokeColor=#0B4FA8;" parent="1" vertex="1">
          <mxGeometry x="-55" y="187" width="139" height="602" as="geometry" />
        </mxCell>
        <mxCell id="p4TXbPgcI1VuwZD0pCjf-8" value="" style="rounded=1;whiteSpace=wrap;html=1;fillColor=#dae8fc;strokeColor=#6c8ebf;dashed=1;dashPattern=1 4;" parent="1" vertex="1">
          <mxGeometry x="664" y="484" width="283" height="144" as="geometry" />
        </mxCell>
        <mxCell id="AcxdMaKK0mU5kZiv2lnr-30" style="edgeStyle=orthogonalEdgeStyle;rounded=0;orthogonalLoop=1;jettySize=auto;html=1;strokeColor=#808080;entryX=1.064;entryY=0.4;entryDx=0;entryDy=0;entryPerimeter=0;" parent="1" target="AcxdMaKK0mU5kZiv2lnr-13" edge="1">
          <mxGeometry relative="1" as="geometry">
            <mxPoint x="933" y="-671" as="sourcePoint" />
            <mxPoint x="853.7281553398057" y="-580.485436893204" as="targetPoint" />
            <Array as="points">
              <mxPoint x="933" y="-601" />
            </Array>
          </mxGeometry>
        </mxCell>
        <mxCell id="AcxdMaKK0mU5kZiv2lnr-18" style="edgeStyle=orthogonalEdgeStyle;rounded=0;orthogonalLoop=1;jettySize=auto;html=1;entryX=-0.044;entryY=0.367;entryDx=0;entryDy=0;entryPerimeter=0;strokeColor=#808080;" parent="1" source="AcxdMaKK0mU5kZiv2lnr-4" target="AcxdMaKK0mU5kZiv2lnr-5" edge="1">
          <mxGeometry relative="1" as="geometry">
            <Array as="points">
              <mxPoint x="203" y="-859" />
            </Array>
          </mxGeometry>
        </mxCell>
        <mxCell id="AcxdMaKK0mU5kZiv2lnr-21" style="edgeStyle=orthogonalEdgeStyle;rounded=0;orthogonalLoop=1;jettySize=auto;html=1;strokeColor=#808080;" parent="1" source="AcxdMaKK0mU5kZiv2lnr-4" edge="1">
          <mxGeometry relative="1" as="geometry">
            <mxPoint x="433" y="-536" as="targetPoint" />
            <Array as="points">
              <mxPoint x="403" y="-665" />
              <mxPoint x="403" y="-536" />
            </Array>
          </mxGeometry>
        </mxCell>
        <mxCell id="AcxdMaKK0mU5kZiv2lnr-16" style="edgeStyle=orthogonalEdgeStyle;rounded=0;orthogonalLoop=1;jettySize=auto;html=1;strokeColor=#808080;" parent="1" source="AcxdMaKK0mU5kZiv2lnr-1" target="AcxdMaKK0mU5kZiv2lnr-4" edge="1">
          <mxGeometry relative="1" as="geometry">
            <Array as="points">
              <mxPoint x="143" y="-677" />
              <mxPoint x="143" y="-677" />
            </Array>
          </mxGeometry>
        </mxCell>
        <mxCell id="AcxdMaKK0mU5kZiv2lnr-19" style="edgeStyle=orthogonalEdgeStyle;rounded=0;orthogonalLoop=1;jettySize=auto;html=1;strokeColor=#808080;" parent="1" source="AcxdMaKK0mU5kZiv2lnr-1" target="AcxdMaKK0mU5kZiv2lnr-3" edge="1">
          <mxGeometry relative="1" as="geometry">
            <Array as="points">
              <mxPoint x="65" y="-521" />
            </Array>
          </mxGeometry>
        </mxCell>
        <mxCell id="AcxdMaKK0mU5kZiv2lnr-17" style="edgeStyle=elbowEdgeStyle;rounded=0;orthogonalLoop=1;jettySize=auto;html=1;entryX=-0.016;entryY=0.49;entryDx=0;entryDy=0;entryPerimeter=0;elbow=vertical;strokeColor=#808080;" parent="1" source="AcxdMaKK0mU5kZiv2lnr-2" target="AcxdMaKK0mU5kZiv2lnr-6" edge="1">
          <mxGeometry relative="1" as="geometry" />
        </mxCell>
        <mxCell id="AcxdMaKK0mU5kZiv2lnr-20" style="edgeStyle=orthogonalEdgeStyle;rounded=0;orthogonalLoop=1;jettySize=auto;html=1;strokeColor=#808080;" parent="1" source="AcxdMaKK0mU5kZiv2lnr-3" target="AcxdMaKK0mU5kZiv2lnr-4" edge="1">
          <mxGeometry relative="1" as="geometry">
            <Array as="points">
              <mxPoint x="268" y="-521" />
            </Array>
          </mxGeometry>
        </mxCell>
        <mxCell id="AcxdMaKK0mU5kZiv2lnr-23" style="edgeStyle=elbowEdgeStyle;rounded=0;orthogonalLoop=1;jettySize=auto;html=1;entryX=-0.007;entryY=0.52;entryDx=0;entryDy=0;entryPerimeter=0;elbow=vertical;strokeColor=#808080;" parent="1" source="AcxdMaKK0mU5kZiv2lnr-8" target="AcxdMaKK0mU5kZiv2lnr-10" edge="1">
          <mxGeometry relative="1" as="geometry" />
        </mxCell>
        <mxCell id="AcxdMaKK0mU5kZiv2lnr-22" style="edgeStyle=orthogonalEdgeStyle;rounded=0;orthogonalLoop=1;jettySize=auto;html=1;strokeColor=#808080;" parent="1" source="AcxdMaKK0mU5kZiv2lnr-9" target="AcxdMaKK0mU5kZiv2lnr-8" edge="1">
          <mxGeometry relative="1" as="geometry" />
        </mxCell>
        <mxCell id="AcxdMaKK0mU5kZiv2lnr-24" style="edgeStyle=elbowEdgeStyle;rounded=0;orthogonalLoop=1;jettySize=auto;html=1;entryX=0.009;entryY=0.518;entryDx=0;entryDy=0;entryPerimeter=0;elbow=vertical;strokeColor=#808080;" parent="1" edge="1">
          <mxGeometry relative="1" as="geometry">
            <mxPoint x="624" y="-677" as="sourcePoint" />
            <mxPoint x="686.8372093023256" y="-677.3023255813953" as="targetPoint" />
            <Array as="points">
              <mxPoint x="653" y="-677" />
            </Array>
          </mxGeometry>
        </mxCell>
        <mxCell id="AcxdMaKK0mU5kZiv2lnr-25" style="edgeStyle=orthogonalEdgeStyle;rounded=0;orthogonalLoop=1;jettySize=auto;html=1;strokeColor=#808080;" parent="1" source="AcxdMaKK0mU5kZiv2lnr-11" edge="1">
          <mxGeometry relative="1" as="geometry">
            <mxPoint x="823" y="-797" as="targetPoint" />
          </mxGeometry>
        </mxCell>
        <mxCell id="AcxdMaKK0mU5kZiv2lnr-26" style="edgeStyle=orthogonalEdgeStyle;rounded=0;orthogonalLoop=1;jettySize=auto;html=1;entryX=0.406;entryY=0;entryDx=0;entryDy=0;entryPerimeter=0;strokeColor=#808080;" parent="1" source="AcxdMaKK0mU5kZiv2lnr-11" target="AcxdMaKK0mU5kZiv2lnr-13" edge="1">
          <mxGeometry relative="1" as="geometry" />
        </mxCell>
        <mxCell id="AcxdMaKK0mU5kZiv2lnr-28" style="edgeStyle=orthogonalEdgeStyle;rounded=0;orthogonalLoop=1;jettySize=auto;html=1;exitX=1.014;exitY=0.505;exitDx=0;exitDy=0;exitPerimeter=0;entryX=0.498;entryY=0.012;entryDx=0;entryDy=0;entryPerimeter=0;strokeColor=#808080;" parent="1" source="AcxdMaKK0mU5kZiv2lnr-12" target="AcxdMaKK0mU5kZiv2lnr-14" edge="1">
          <mxGeometry relative="1" as="geometry" />
        </mxCell>
        <mxCell id="AcxdMaKK0mU5kZiv2lnr-27" style="edgeStyle=orthogonalEdgeStyle;rounded=0;orthogonalLoop=1;jettySize=auto;html=1;exitX=1.004;exitY=0.609;exitDx=0;exitDy=0;exitPerimeter=0;strokeColor=#808080;" parent="1" source="AcxdMaKK0mU5kZiv2lnr-13" edge="1">
          <mxGeometry relative="1" as="geometry">
            <mxPoint x="943" y="-671" as="targetPoint" />
            <Array as="points">
              <mxPoint x="943" y="-591" />
            </Array>
          </mxGeometry>
        </mxCell>
        <mxCell id="AcxdMaKK0mU5kZiv2lnr-4" value="Channel" style="rounded=0;whiteSpace=wrap;html=1;fillColor=#f5f5f5;strokeColor=none;fontColor=#333333;verticalAlign=top;" parent="1" vertex="1">
          <mxGeometry x="153" y="-741" width="230" height="151" as="geometry" />
        </mxCell>
        <mxCell id="AcxdMaKK0mU5kZiv2lnr-1" value="Live Source" style="shape=image;verticalLabelPosition=bottom;labelBackgroundColor=#ffffff;verticalAlign=top;aspect=fixed;imageAspect=0;image=data:image/svg+xml,PHN2ZyB4bWxuczpjYz0iaHR0cDovL2NyZWF0aXZlY29tbW9ucy5vcmcvbnMjIiB4bWxuczpkYz0iaHR0cDovL3B1cmwub3JnL2RjL2VsZW1lbnRzLzEuMS8iIHhtbG5zOmlua3NjYXBlPSJodHRwOi8vd3d3Lmlua3NjYXBlLm9yZy9uYW1lc3BhY2VzL2lua3NjYXBlIiB4bWxuczpyZGY9Imh0dHA6Ly93d3cudzMub3JnLzE5OTkvMDIvMjItcmRmLXN5bnRheC1ucyMiIHhtbG5zOnNvZGlwb2RpPSJodHRwOi8vc29kaXBvZGkuc291cmNlZm9yZ2UubmV0L0RURC9zb2RpcG9kaS0wLmR0ZCIgeG1sbnM6c3ZnPSJodHRwOi8vd3d3LnczLm9yZy8yMDAwL3N2ZyIgeG1sbnM9Imh0dHA6Ly93d3cudzMub3JnLzIwMDAvc3ZnIiB4bWxuczp4bGluaz0iaHR0cDovL3d3dy53My5vcmcvMTk5OS94bGluayIgdmVyc2lvbj0iMS4xIiBpZD0ic3ZnNDYyMjYiIGlua3NjYXBlOnZlcnNpb249IjAuOTIuMyAoMjQwNTU0NiwgMjAxOC0wMy0xMSkiIHNvZGlwb2RpOmRvY25hbWU9ImNhbWVyYS5zdmciIHg9IjBweCIgeT0iMHB4IiB2aWV3Qm94PSIwIDAgNDYuNzggMzUuMTEiIHN0eWxlPSJlbmFibGUtYmFja2dyb3VuZDpuZXcgMCAwIDQ2Ljc4IDM1LjExOyIgeG1sOnNwYWNlPSJwcmVzZXJ2ZSI+JiN4YTs8c29kaXBvZGk6bmFtZWR2aWV3IGJvcmRlcmNvbG9yPSIjNjY2NjY2IiBib3JkZXJvcGFjaXR5PSIxIiBmaXQtbWFyZ2luLWJvdHRvbT0iMCIgZml0LW1hcmdpbi1sZWZ0PSIwIiBmaXQtbWFyZ2luLXJpZ2h0PSIwIiBmaXQtbWFyZ2luLXRvcD0iMCIgZ3JpZHRvbGVyYW5jZT0iMTAiIGd1aWRldG9sZXJhbmNlPSIxMCIgaWQ9Im5hbWVkdmlldzQ2MjI4IiBpbmtzY2FwZTpjdXJyZW50LWxheWVyPSJzdmc0NjIyNiIgaW5rc2NhcGU6Y3g9IjMxLjE4Mzc3NyIgaW5rc2NhcGU6Y3k9IjIzLjQwNTI0OSIgaW5rc2NhcGU6cGFnZW9wYWNpdHk9IjAiIGlua3NjYXBlOnBhZ2VzaGFkb3c9IjIiIGlua3NjYXBlOndpbmRvdy1oZWlnaHQ9IjEwMTciIGlua3NjYXBlOndpbmRvdy1tYXhpbWl6ZWQ9IjEiIGlua3NjYXBlOndpbmRvdy13aWR0aD0iMTkyMCIgaW5rc2NhcGU6d2luZG93LXg9Ii04IiBpbmtzY2FwZTp3aW5kb3cteT0iLTgiIGlua3NjYXBlOnpvb209IjE4LjUxOTI1OSIgb2JqZWN0dG9sZXJhbmNlPSIxMCIgcGFnZWNvbG9yPSIjZmZmZmZmIiBzaG93Z3JpZD0iZmFsc2UiPiYjeGE7CTwvc29kaXBvZGk6bmFtZWR2aWV3PiYjeGE7PGcgaWQ9Imc0NjIyNCI+JiN4YTsJPHRpdGxlIGlkPSJ0aXRsZTQ2MjE3Ij5QYWdlLTE8L3RpdGxlPiYjeGE7CTxnIGlkPSJzaGFwZTEwOC0xIj4mI3hhOwkJPHRpdGxlIGlkPSJ0aXRsZTQ2MjE5Ij5DYW1lcmE8L3RpdGxlPiYjeGE7CQk8cGF0aCBpZD0icGF0aDQ2MjIxIiBpbmtzY2FwZTpjb25uZWN0b3ItY3VydmF0dXJlPSIwIiBzdHlsZT0iZmlsbDojM0Y1NzY1OyIgZD0iTTQ2Ljc4LDEzLjUzYzAsMjAuMTIsMCwyMC4xMiwwLDIwLjEyICAgIGMwLDAuNzMtMC43NCwxLjQ2LTEuODMsMC43M2MtNC4zOS0zLjY2LTQuMzktMy42Ni00LjM5LTMuNjZjMC0wLjczLTEuMDktMC43My0xLjA5LTEuODNjLTEuODMsMC0xLjgzLDAtMS44MywwICAgIGMwLDQuNzYsMCw0Ljc2LDAsNC43NmMwLDAuNzMtMC43MywxLjQ2LTEuODMsMS40NmMtMjkuMjMsMC0yOS4yMywwLTI5LjIzLDBjLTAuNzMsMC0xLjgzLTAuNzMtMS44My0xLjQ2YzAtMTcuMTksMC0xNy4xOSwwLTE3LjE5ICAgIGMwLTEuODMsMS4xLTIuOTMsMS44My0yLjkzYzI5LjIzLDAsMjkuMjMsMCwyOS4yMywwYzEuMSwwLDEuODMsMS4xLDEuODMsMi45M3MwLDEuODMsMCwxLjgzYzEuODMsMCwxLjgzLDAsMS44MywwbDEuMDktMS4xICAgIGM0LjM5LTQuMzksNC4zOS00LjM5LDQuMzktNC4zOUM0Ni4wNCwxMi44LDQ2Ljc4LDEyLjgsNDYuNzgsMTMuNTN6IE0xLjgzLDE0LjYzQzEuMSwxNC42MywwLDE1LjM2LDAsMTYuNDZjMCw2LjIyLDAsNi4yMiwwLDYuMjIgICAgYzAsMC43MywxLjEsMS44MywxLjgzLDEuODNjMS4wOSwwLDIuMTktMS4xLDIuMTktMS44M2MwLTYuMjIsMC02LjIyLDAtNi4yMkM0LjAyLDE1LjM2LDIuOTIsMTQuNjMsMS44MywxNC42M3ogTTI4LjUsMTIuOCAgICBjMy42NiwwLDYuNTgtMi41Niw2LjU4LTYuMjJDMzUuMDgsMi45MywzMi4xNiwwLDI4LjUsMGMtMy42NSwwLTcuMywyLjkzLTcuMyw2LjU4QzIxLjIsMTAuMjQsMjQuODUsMTIuOCwyOC41LDEyLjh6IE0xMy44OSwxMi44ICAgIGMzLjY1LDAsNi41Ny0yLjU2LDYuNTctNi4yMmMwLTMuNjUtMi45Mi02LjU4LTYuNTctNi41OGMtMy42NiwwLTcuMzEsMi45My03LjMxLDYuNThDNi41OCwxMC4yNCwxMC4yMywxMi44LDEzLjg5LDEyLjh6Ii8+JiN4YTsJPC9nPiYjeGE7PC9nPiYjeGE7PC9zdmc+;" parent="1" vertex="1">
          <mxGeometry x="33" y="-701" width="64" height="48" as="geometry" />
        </mxCell>
        <mxCell id="AcxdMaKK0mU5kZiv2lnr-2" value="Azure Live&#xa;Encoder&#xa;" style="shape=image;verticalLabelPosition=bottom;labelBackgroundColor=none;verticalAlign=top;aspect=fixed;imageAspect=0;image=data:image/svg+xml,PHN2ZyB4bWxuczpjYz0iaHR0cDovL2NyZWF0aXZlY29tbW9ucy5vcmcvbnMjIiB4bWxuczpkYz0iaHR0cDovL3B1cmwub3JnL2RjL2VsZW1lbnRzLzEuMS8iIHhtbG5zOmlua3NjYXBlPSJodHRwOi8vd3d3Lmlua3NjYXBlLm9yZy9uYW1lc3BhY2VzL2lua3NjYXBlIiB4bWxuczpyZGY9Imh0dHA6Ly93d3cudzMub3JnLzE5OTkvMDIvMjItcmRmLXN5bnRheC1ucyMiIHhtbG5zOnNvZGlwb2RpPSJodHRwOi8vc29kaXBvZGkuc291cmNlZm9yZ2UubmV0L0RURC9zb2RpcG9kaS0wLmR0ZCIgeG1sbnM6c3ZnPSJodHRwOi8vd3d3LnczLm9yZy8yMDAwL3N2ZyIgeG1sbnM9Imh0dHA6Ly93d3cudzMub3JnLzIwMDAvc3ZnIiB4bWxuczp4bGluaz0iaHR0cDovL3d3dy53My5vcmcvMTk5OS94bGluayIgdmVyc2lvbj0iMS4xIiBpZD0ic3ZnNTQ2MTgiIGlua3NjYXBlOnZlcnNpb249IjAuOTIuMyAoMjQwNTU0NiwgMjAxOC0wMy0xMSkiIHNvZGlwb2RpOmRvY25hbWU9ImVuY29kaW5nLnN2ZyIgeD0iMHB4IiB5PSIwcHgiIHZpZXdCb3g9IjAgMCAyMi44MiAyMS41OCIgc3R5bGU9ImVuYWJsZS1iYWNrZ3JvdW5kOm5ldyAwIDAgMjIuODIgMjEuNTg7IiB4bWw6c3BhY2U9InByZXNlcnZlIj4mI3hhOzxzb2RpcG9kaTpuYW1lZHZpZXcgYm9yZGVyY29sb3I9IiM2NjY2NjYiIGJvcmRlcm9wYWNpdHk9IjEiIGZpdC1tYXJnaW4tYm90dG9tPSIwIiBmaXQtbWFyZ2luLWxlZnQ9IjAiIGZpdC1tYXJnaW4tcmlnaHQ9IjAiIGZpdC1tYXJnaW4tdG9wPSIwIiBncmlkdG9sZXJhbmNlPSIxMCIgZ3VpZGV0b2xlcmFuY2U9IjEwIiBpZD0ibmFtZWR2aWV3NTQ2MjAiIGlua3NjYXBlOmN1cnJlbnQtbGF5ZXI9InN2ZzU0NjE4IiBpbmtzY2FwZTpjeD0iMTEuMjk4ODY0IiBpbmtzY2FwZTpjeT0iLTEuMDQxNTI5MSIgaW5rc2NhcGU6cGFnZW9wYWNpdHk9IjAiIGlua3NjYXBlOnBhZ2VzaGFkb3c9IjIiIGlua3NjYXBlOndpbmRvdy1oZWlnaHQ9IjEwMTciIGlua3NjYXBlOndpbmRvdy1tYXhpbWl6ZWQ9IjEiIGlua3NjYXBlOndpbmRvdy13aWR0aD0iMTkyMCIgaW5rc2NhcGU6d2luZG93LXg9Ii04IiBpbmtzY2FwZTp3aW5kb3cteT0iLTgiIGlua3NjYXBlOnpvb209IjEwLjY1MzgzNiIgb2JqZWN0dG9sZXJhbmNlPSIxMCIgcGFnZWNvbG9yPSIjZmZmZmZmIiBzaG93Z3JpZD0iZmFsc2UiPiYjeGE7CTwvc29kaXBvZGk6bmFtZWR2aWV3PiYjeGE7PGcgaWQ9Imc1NDYxNiIgdHJhbnNmb3JtPSJ0cmFuc2xhdGUoLTIuNzQwNjUzNWUtNSwwLjAwMzE0NTc0KSI+JiN4YTsJPHRpdGxlIGlkPSJ0aXRsZTU0NjA5Ij5QYWdlLTE8L3RpdGxlPiYjeGE7CTxnIGlkPSJzaGFwZTMwODQtMSI+JiN4YTsJCTx0aXRsZSBpZD0idGl0bGU1NDYxMSI+RW5jb2Rpbmc8L3RpdGxlPiYjeGE7CQk8cGF0aCBpZD0icGF0aDU0NjEzIiBpbmtzY2FwZTpjb25uZWN0b3ItY3VydmF0dXJlPSIwIiBzdHlsZT0iZmlsbDojM0Y1NzY1OyIgZD0iTTIyLjgyLDEzLjMxYzAtMC44NSwwLTQuNzktMC4wOC04LjY3ICAgIGMwLTIuNDQtMi4zNC00Ljc0LTUuODctNC42NEMxNi4zMiwwLDgsMC4wNyw4LDAuMDdDNi45OSwwLjE1LDYuODQsMC45NCw2Ljg0LDEuMzNzMCwwLjA3LDAsMC42M2MwLDAuNDgsMC41MywwLjg3LDEuMDksMC45NCAgICBjMCwwLDAsMCwwLDAuMWMwLDAuMDcsMCwwLjA3LDAuMDcsMC4xNEM3LjU0LDMuNyw3LjU0LDMuNyw3LjU0LDMuN2MwLDAuNjMsMCwwLjYzLDAsMC42M2MtNC40LDAtNC40LDAtNC40LDAgICAgYzAsMi44MywwLDIuODMsMCwyLjgzQzAsNy4xNiwwLDcuMTYsMCw3LjE2YzAsMy44LDAsMy44LDAsMy44YzE2LjI0LDAsMTYuMjQsMCwxNi4yNCwwYzAtMy44LDAtMy44LDAtMy44Yy0yLjIsMC0yLjIsMC0yLjIsMCAgICBjMC0yLjgzLDAtMi44MywwLTIuODNjLTMuOTgsMC0zLjk4LDAtMy45OCwwYzAtMC41NiwwLTAuNTYsMC0wLjU2QzkuNTcsMy4xNCw5LjU3LDMuMTQsOS41NywzLjE0YzAtMC4wNywwLjA3LTAuMDcsMC4wNy0wLjE0ICAgIGMwLTAuMSwwLTAuMS0wLjA3LTAuMTdjMi4xMywwLDUuNTktMC4wNyw2LjIxLTAuMDdjMy41MSwwLDMuODIsMS40LDMuODIsMi4zN2MwLDAuODUsMC4xLDYuMjIsMC4xLDguMzQgICAgYzAuMDcsMi4wNi0zLjIyLDIuMDYtMy44NCwyLjA2Yy0wLjM5LDAtNC4zMywwLTYuMjIsMC4wN2wtMC4wNy0wLjA3Yy0wLjE0LDAtMC4xNCwwLTAuMTQsMGMwLTAuMSwwLTAuMSwwLTAuMSAgICBjMC4xNC0wLjA3LDAuMTQtMC4wNywwLjE0LTAuMDdoMC4wN2MwLTAuMDctMC4wNy0wLjA3LTAuMDctMC4wN2MtMC4xNCwwLTAuMTQsMC0wLjE0LDBjMC0wLjE3LDAtMC4xNywwLTAuMTcgICAgYzAuMTQsMCwwLjE0LDAsMC4xNCwwczAuMDcsMCwwLjA3LTAuMDdIOS41N2MtMC4xNCwwLTAuMTQsMC0wLjE0LDBjMC0wLjE1LDAtMC4xNSwwLTAuMTVjMC4xNCwwLDAuMTQsMCwwLjE0LDBzMC4wNywwLDAuMDctMC4wOSAgICBIOS41N2MtMC4xNCwwLTAuMTQsMC0wLjE0LDBjMC0wLjE1LDAtMC4xNSwwLTAuMTVjMC4xNCwwLDAuMTQsMCwwLjE0LDBsMC4wNy0wLjFsLTAuMDctMC4wN2MtMC4xNCwwLTAuMTQsMC0wLjE0LDAgICAgYzAtMC4xNCwwLTAuMTQsMC0wLjE0YzAuMTQsMCwwLjE0LDAsMC4xNCwwaDAuMDdjMC0wLjEtMC4wNy0wLjEtMC4wNy0wLjFjLTAuMTQsMC0wLjE0LDAtMC4xNCwwQzkuMzUsMTQuMSw5LjM1LDE0LjEsOS4zNSwxNC4xICAgIGMwLjIyLDAsMC4yMiwwLDAuMjIsMHMwLjA3LDAsMC4wNy0wLjA3Yy0wLjA3LDAtMC4wNywwLTAuMDcsMGMtMC4yMiwwLTAuMjIsMC0wLjIyLDBjMC0wLjE3LDAtMC4xNywwLTAuMTdjMC4yMiwwLDAuMjIsMCwwLjIyLDAgICAgdi0wLjA3di0wLjA3Yy0wLjIyLDAtMC4yMiwwLTAuMjIsMGMwLTAuMTcsMC0wLjE3LDAtMC4xN2MwLjIyLDAsMC4yMiwwLDAuMjIsMGwwLDBjMC0wLjA4LDAtMC4wOCwwLTAuMDhjLTAuMjIsMC0wLjIyLDAtMC4yMiwwICAgIGMwLTAuMTYsMC0wLjE2LDAtMC4xNmMwLjIyLDAsMC4yMiwwLDAuMjIsMHMwLDAsMC0wLjA4bDAsMGMtMC4yMiwwLTAuMjIsMC0wLjIyLDBjMC0wLjE0LDAtMC4xNCwwLTAuMTRjMC4yMiwwLDAuMjIsMCwwLjIyLDAgICAgdi0wLjF2LTAuMDdjLTAuMjIsMC0wLjIyLDAtMC4yMiwwYzAtMC4xNSwwLTAuMTUsMC0wLjE1YzAuMjIsMCwwLjIyLDAsMC4yMiwwbDAsMGMwLTAuMDksMC0wLjA5LDAtMC4wOWMtMC4yMiwwLTAuMjIsMC0wLjIyLDAgICAgYzAtMC4wOCwwLTAuMDgsMC0wLjA4YzAuMjIsMCwwLjIyLDAsMC4yMiwwYzAuMDcsMCwwLjE3LTAuMDcsMC4xNy0wLjE0YzAtMC4xLDAtMC4xLTAuMS0wLjE3YzAuNDktMC41NiwwLjQ5LTAuNTYsMC40OS0wLjU2ICAgIGMwLTAuNzcsMC0wLjc3LDAtMC43N2MtMi41MiwwLTIuNTIsMC0yLjUyLDBjMCwwLjcsMCwwLjcsMCwwLjdjMC40OSwwLjcsMC40OSwwLjcsMC40OSwwLjdjLTAuMSwwLTAuMSwwLjEtMC4xLDAuMSAgICBjMCwwLjE0LDAuMSwwLjE0LDAuMTcsMC4xNHMwLjA3LDAsMC4wNywwYzAsMC4wOCwwLDAuMDgsMCwwLjA4Yy0wLjE0LDAtMC4xNCwwLTAuMTQsMHYwLjA5djAuMDhjMC4xNCwwLDAuMTQsMCwwLjE0LDAgICAgYzAsMC4xNCwwLDAuMTQsMCwwLjE0Yy0wLjE0LDAtMC4xNCwwLTAuMTQsMGwwLDBjMCwwLjEsMCwwLjEsMCwwLjFjMC4xNCwwLDAuMTQsMCwwLjE0LDBjMCwwLjE0LDAsMC4xNCwwLDAuMTQgICAgYy0wLjE0LDAtMC4xNCwwLTAuMTQsMHMwLDAsMCwwLjA4bDAsMGMwLjE0LDAsMC4xNCwwLDAuMTQsMGMwLDAuMTYsMCwwLjE2LDAsMC4xNmMtMC4xNCwwLTAuMTQsMC0wLjE0LDB2MC4wOHYwLjA3ICAgIGMwLjE0LDAsMC4xNCwwLDAuMTQsMGMwLDAuMTcsMCwwLjE3LDAsMC4xN2MtMC4xNCwwLTAuMTQsMC0wLjE0LDBsMCwwYzAsMC4wNywwLDAuMDcsMC4wNywwLjA3czAuMDcsMCwwLjA3LDAgICAgYzAsMC4xNywwLDAuMTcsMCwwLjE3Yy0wLjA3LDAtMC4wNywwLTAuMDcsMGMtMC4wNywwLTAuMDcsMC0wLjA3LDAuMDdjMCwwLDAsMCwwLjA3LDBzMC4wNywwLDAuMDcsMGMwLDAuMTUsMCwwLjE1LDAsMC4xNSAgICBjLTAuMDcsMC0wLjA3LDAtMC4wNywwYy0wLjA3LDAtMC4wNywwLTAuMDcsMC4xYzAsMCwwLDAsMC4wNywwczAuMDcsMCwwLjA3LDBjMCwwLjE0LDAsMC4xNCwwLDAuMTRjLTAuMDcsMC0wLjA3LDAtMC4wNywwICAgIGMtMC4wNywwLTAuMDcsMC4wNy0wLjA3LDAuMDdjMCwwLjEsMCwwLjEsMC4wNywwLjFzMC4wNywwLDAuMDcsMGMwLDAuMTUsMCwwLjE1LDAsMC4xNWMtMC4wNywwLTAuMDcsMC0wLjA3LDAgICAgYy0wLjA3LDAtMC4wNywwLTAuMDcsMGMwLDAuMDksMCwwLjA5LDAuMDcsMC4wOXMwLjA3LDAsMC4wNywwYzAsMC4xNSwwLDAuMTUsMCwwLjE1Yy0wLjA3LDAtMC4wNywwLTAuMDcsMCAgICBjLTAuMDcsMC0wLjA3LDAtMC4wNywwLjA3YzAsMCwwLDAsMC4wNywwczAuMDcsMCwwLjA3LDBjMCwwLjE3LDAsMC4xNywwLDAuMTdjLTAuMDcsMC0wLjA3LDAtMC4wNywwYy0wLjA3LDAtMC4wNywwLjA3LTAuMDcsMC4wNyAgICBzMCwwLjA3LDAuMDcsMC4wN3MwLjA3LDAsMC4wNywwYzAsMC4xNywwLDAuMTcsMCwwLjE3Yy0wLjA3LDAtMC4wNywwLTAuMDcsMGMtMC4wNywwLTAuMDcsMC0wLjA3LDB2MC4wOCAgICBjLTAuNDEsMC4wNy0wLjczLDAuMzEtMC43MywwLjc5YzAsMC4zMiwwLDAuMzksMC4xLDAuODhjMCwwLjM4LDAuMzEsMC43NywwLjcsMC44NGwwLDBjMCwwLjEsMCwwLjEsMCwwLjFjMC4xNCwwLDAuMTQsMCwwLjE0LDAgICAgYzAsMC4xNCwwLDAuMTQsMCwwLjE0Yy0wLjE0LDAtMC4xNCwwLTAuMTQsMHMwLDAsMCwwLjA4bDAsMGMwLjE0LDAsMC4xNCwwLDAuMTQsMGMwLDAuMTcsMCwwLjE3LDAsMC4xN2MtMC4xNCwwLTAuMTQsMC0wLjE0LDAgICAgdjAuMDd2MC4wN2MwLjE0LDAsMC4xNCwwLDAuMTQsMGMwLDAuMTcsMCwwLjE3LDAsMC4xN2MtMC4xNCwwLTAuMTQsMC0wLjE0LDBsMCwwYzAsMC4wNywwLDAuMDcsMCwwLjA3YzAuMTQsMCwwLjE0LDAsMC4xNCwwICAgIGMwLDAuMTcsMCwwLjE3LDAsMC4xN2MtMC4xNCwwLTAuMTQsMC0wLjE0LDBzMCwwLDAsMC4wN2wwLDBjMC4xNCwwLDAuMTQsMCwwLjE0LDBjMCwwLjE1LDAsMC4xNSwwLDAuMTVjLTAuMTQsMC0wLjE0LDAtMC4xNCwwICAgIHYwLjF2MC4wN2MwLjE0LDAsMC4xNCwwLDAuMTQsMGMwLDAuMTcsMCwwLjE3LDAsMC4xN2MtMC4xNCwwLTAuMTQsMC0wLjE0LDBsMCwwYzAsMC4wNywwLDAuMDcsMC4wNywwLjA3czAuMDcsMCwwLjA3LDAgICAgYzAsMC4xNSwwLDAuMTUsMCwwLjE1Yy0wLjA3LDAtMC4wNywwLTAuMDcsMGMtMC4wNywwLTAuMDcsMC0wLjA3LDAuMDljMCwwLDAsMCwwLjA3LDBzMC4wNywwLDAuMDcsMGMwLDAuMDgsMCwwLjA4LDAsMC4wOCAgICBjLTAuNjIsMC0wLjYyLDAtMC42MiwwYzAsMC4yNCwwLDAuMjQsMCwwLjI0Yy0yLjksMC0yLjksMC0yLjksMGMtMC4yMiwwLTAuMzksMC4wNy0wLjM5LDAuMTRjMCwwLjA4LDAsMC4wOCwwLDAuMDggICAgYzAsMC4wOSwwLjE3LDAuMTYsMC4zOSwwLjE2YzIuOS0wLjA3LDIuOS0wLjA3LDIuOS0wLjA3YzAsMC4xNSwwLDAuMTUsMCwwLjE1YzAuNTUsMC43LDAuNTUsMC43LDAuNTUsMC43YzEuNSwwLDEuNSwwLDEuNSwwICAgIGMwLjUzLTAuNywwLjUzLTAuNywwLjUzLTAuN2MwLTAuMTUsMC0wLjE1LDAtMC4xNWMyLjgzLDAsMi44MywwLDIuODMsMGMwLjI0LTAuMDksMC40OC0wLjA5LDAuNDgtMC4xNyAgICBjLTAuMDktMC4xNC0wLjA5LTAuMTQtMC4wOS0wLjE0YzAtMC4xLTAuMTUtMC4xLTAuMzktMC4xYy0yLjgzLDAtMi44MywwLTIuODMsMGMwLTAuMTQsMC0wLjE0LDAtMC4xNGMtMC43NywwLTAuNzcsMC0wLjc3LDAgICAgYzAtMC4wOCwwLTAuMDgsMC0wLjA4YzAuMTQsMCwwLjE0LDAsMC4xNCwwczAuMSwwLDAuMS0wLjA5aC0wLjFjLTAuMjEsMC0wLjIxLDAtMC4yMSwwYzAtMC4xNSwwLTAuMTUsMC0wLjE1ICAgIGMwLjIxLDAsMC4yMSwwLDAuMjEsMHYtMC4wN3YtMC4xYy0wLjIxLDAtMC4yMSwwLTAuMjEsMGMwLTAuMTQsMC0wLjE0LDAtMC4xNGMwLjIxLDAsMC4yMSwwLDAuMjEsMGwwLDBjMC0wLjEsMC0wLjEsMC0wLjEgICAgYy0wLjIxLDAtMC4yMSwwLTAuMjEsMGMwLTAuMTUsMC0wLjE1LDAtMC4xNWMwLjIxLDAsMC4yMSwwLDAuMjEsMHMwLDAsMC0wLjA3bDAsMGMtMC4yMSwwLTAuMjEsMC0wLjIxLDBjMC0wLjE3LDAtMC4xNywwLTAuMTcgICAgYzAuMjEsMCwwLjIxLDAsMC4yMSwwdi0wLjA3di0wLjA3Yy0wLjIxLDAtMC4yMSwwLTAuMjEsMGMwLTAuMSwwLTAuMSwwLTAuMWMwLjIxLTAuMDcsMC4yMS0wLjA3LDAuMjEtMC4wN2wwLDAgICAgYzAtMC4wNywwLTAuMDcsMC0wLjA3Yy0wLjIxLDAtMC4yMSwwLTAuMjEsMGMwLTAuMTcsMC0wLjE3LDAtMC4xN2MwLjIxLDAsMC4yMSwwLDAuMjEsMGwwLDBjMC0wLjA4LDAtMC4wOCwwLTAuMDggICAgYy0wLjIxLDAtMC4yMSwwLTAuMjEsMGMwLTAuMTQsMC0wLjE0LDAtMC4xNGMwLjIxLDAsMC4yMSwwLDAuMjEsMHMwLDAsMC0wLjFsMCwwYzEuMzYsMCwzLjYzLTAuMDcsNy4zOC0wLjA3ICAgIEMyMi44MiwxOC4wNSwyMi44MiwxNC4yNSwyMi44MiwxMy4zMXoiLz4mI3hhOwk8L2c+JiN4YTs8L2c+JiN4YTs8L3N2Zz4=;" parent="1" vertex="1">
          <mxGeometry x="168" y="-705.9999999999999" width="61" height="58" as="geometry" />
        </mxCell>
        <mxCell id="AcxdMaKK0mU5kZiv2lnr-3" value="3rd party&#xa;On-Premises&#xa;Live Encoder&#xa;" style="shape=image;verticalLabelPosition=bottom;labelBackgroundColor=#ffffff;verticalAlign=top;aspect=fixed;imageAspect=0;image=data:image/svg+xml,PHN2ZyB4bWxuczpjYz0iaHR0cDovL2NyZWF0aXZlY29tbW9ucy5vcmcvbnMjIiB4bWxuczpkYz0iaHR0cDovL3B1cmwub3JnL2RjL2VsZW1lbnRzLzEuMS8iIHhtbG5zOmlua3NjYXBlPSJodHRwOi8vd3d3Lmlua3NjYXBlLm9yZy9uYW1lc3BhY2VzL2lua3NjYXBlIiB4bWxuczpyZGY9Imh0dHA6Ly93d3cudzMub3JnLzE5OTkvMDIvMjItcmRmLXN5bnRheC1ucyMiIHhtbG5zOnNvZGlwb2RpPSJodHRwOi8vc29kaXBvZGkuc291cmNlZm9yZ2UubmV0L0RURC9zb2RpcG9kaS0wLmR0ZCIgeG1sbnM6c3ZnPSJodHRwOi8vd3d3LnczLm9yZy8yMDAwL3N2ZyIgeG1sbnM9Imh0dHA6Ly93d3cudzMub3JnLzIwMDAvc3ZnIiB4bWxuczp4bGluaz0iaHR0cDovL3d3dy53My5vcmcvMTk5OS94bGluayIgdmVyc2lvbj0iMS4xIiBpZD0ic3ZnNTQ2MTgiIGlua3NjYXBlOnZlcnNpb249IjAuOTIuMyAoMjQwNTU0NiwgMjAxOC0wMy0xMSkiIHNvZGlwb2RpOmRvY25hbWU9ImVuY29kaW5nLnN2ZyIgeD0iMHB4IiB5PSIwcHgiIHZpZXdCb3g9IjAgMCAyMi44MiAyMS41OCIgc3R5bGU9ImVuYWJsZS1iYWNrZ3JvdW5kOm5ldyAwIDAgMjIuODIgMjEuNTg7IiB4bWw6c3BhY2U9InByZXNlcnZlIj4mI3hhOzxzb2RpcG9kaTpuYW1lZHZpZXcgYm9yZGVyY29sb3I9IiM2NjY2NjYiIGJvcmRlcm9wYWNpdHk9IjEiIGZpdC1tYXJnaW4tYm90dG9tPSIwIiBmaXQtbWFyZ2luLWxlZnQ9IjAiIGZpdC1tYXJnaW4tcmlnaHQ9IjAiIGZpdC1tYXJnaW4tdG9wPSIwIiBncmlkdG9sZXJhbmNlPSIxMCIgZ3VpZGV0b2xlcmFuY2U9IjEwIiBpZD0ibmFtZWR2aWV3NTQ2MjAiIGlua3NjYXBlOmN1cnJlbnQtbGF5ZXI9InN2ZzU0NjE4IiBpbmtzY2FwZTpjeD0iMTEuMjk4ODY0IiBpbmtzY2FwZTpjeT0iLTEuMDQxNTI5MSIgaW5rc2NhcGU6cGFnZW9wYWNpdHk9IjAiIGlua3NjYXBlOnBhZ2VzaGFkb3c9IjIiIGlua3NjYXBlOndpbmRvdy1oZWlnaHQ9IjEwMTciIGlua3NjYXBlOndpbmRvdy1tYXhpbWl6ZWQ9IjEiIGlua3NjYXBlOndpbmRvdy13aWR0aD0iMTkyMCIgaW5rc2NhcGU6d2luZG93LXg9Ii04IiBpbmtzY2FwZTp3aW5kb3cteT0iLTgiIGlua3NjYXBlOnpvb209IjEwLjY1MzgzNiIgb2JqZWN0dG9sZXJhbmNlPSIxMCIgcGFnZWNvbG9yPSIjZmZmZmZmIiBzaG93Z3JpZD0iZmFsc2UiPiYjeGE7CTwvc29kaXBvZGk6bmFtZWR2aWV3PiYjeGE7PGcgaWQ9Imc1NDYxNiIgdHJhbnNmb3JtPSJ0cmFuc2xhdGUoLTIuNzQwNjUzNWUtNSwwLjAwMzE0NTc0KSI+JiN4YTsJPHRpdGxlIGlkPSJ0aXRsZTU0NjA5Ij5QYWdlLTE8L3RpdGxlPiYjeGE7CTxnIGlkPSJzaGFwZTMwODQtMSI+JiN4YTsJCTx0aXRsZSBpZD0idGl0bGU1NDYxMSI+RW5jb2Rpbmc8L3RpdGxlPiYjeGE7CQk8cGF0aCBpZD0icGF0aDU0NjEzIiBpbmtzY2FwZTpjb25uZWN0b3ItY3VydmF0dXJlPSIwIiBzdHlsZT0iZmlsbDojM0Y1NzY1OyIgZD0iTTIyLjgyLDEzLjMxYzAtMC44NSwwLTQuNzktMC4wOC04LjY3ICAgIGMwLTIuNDQtMi4zNC00Ljc0LTUuODctNC42NEMxNi4zMiwwLDgsMC4wNyw4LDAuMDdDNi45OSwwLjE1LDYuODQsMC45NCw2Ljg0LDEuMzNzMCwwLjA3LDAsMC42M2MwLDAuNDgsMC41MywwLjg3LDEuMDksMC45NCAgICBjMCwwLDAsMCwwLDAuMWMwLDAuMDcsMCwwLjA3LDAuMDcsMC4xNEM3LjU0LDMuNyw3LjU0LDMuNyw3LjU0LDMuN2MwLDAuNjMsMCwwLjYzLDAsMC42M2MtNC40LDAtNC40LDAtNC40LDAgICAgYzAsMi44MywwLDIuODMsMCwyLjgzQzAsNy4xNiwwLDcuMTYsMCw3LjE2YzAsMy44LDAsMy44LDAsMy44YzE2LjI0LDAsMTYuMjQsMCwxNi4yNCwwYzAtMy44LDAtMy44LDAtMy44Yy0yLjIsMC0yLjIsMC0yLjIsMCAgICBjMC0yLjgzLDAtMi44MywwLTIuODNjLTMuOTgsMC0zLjk4LDAtMy45OCwwYzAtMC41NiwwLTAuNTYsMC0wLjU2QzkuNTcsMy4xNCw5LjU3LDMuMTQsOS41NywzLjE0YzAtMC4wNywwLjA3LTAuMDcsMC4wNy0wLjE0ICAgIGMwLTAuMSwwLTAuMS0wLjA3LTAuMTdjMi4xMywwLDUuNTktMC4wNyw2LjIxLTAuMDdjMy41MSwwLDMuODIsMS40LDMuODIsMi4zN2MwLDAuODUsMC4xLDYuMjIsMC4xLDguMzQgICAgYzAuMDcsMi4wNi0zLjIyLDIuMDYtMy44NCwyLjA2Yy0wLjM5LDAtNC4zMywwLTYuMjIsMC4wN2wtMC4wNy0wLjA3Yy0wLjE0LDAtMC4xNCwwLTAuMTQsMGMwLTAuMSwwLTAuMSwwLTAuMSAgICBjMC4xNC0wLjA3LDAuMTQtMC4wNywwLjE0LTAuMDdoMC4wN2MwLTAuMDctMC4wNy0wLjA3LTAuMDctMC4wN2MtMC4xNCwwLTAuMTQsMC0wLjE0LDBjMC0wLjE3LDAtMC4xNywwLTAuMTcgICAgYzAuMTQsMCwwLjE0LDAsMC4xNCwwczAuMDcsMCwwLjA3LTAuMDdIOS41N2MtMC4xNCwwLTAuMTQsMC0wLjE0LDBjMC0wLjE1LDAtMC4xNSwwLTAuMTVjMC4xNCwwLDAuMTQsMCwwLjE0LDBzMC4wNywwLDAuMDctMC4wOSAgICBIOS41N2MtMC4xNCwwLTAuMTQsMC0wLjE0LDBjMC0wLjE1LDAtMC4xNSwwLTAuMTVjMC4xNCwwLDAuMTQsMCwwLjE0LDBsMC4wNy0wLjFsLTAuMDctMC4wN2MtMC4xNCwwLTAuMTQsMC0wLjE0LDAgICAgYzAtMC4xNCwwLTAuMTQsMC0wLjE0YzAuMTQsMCwwLjE0LDAsMC4xNCwwaDAuMDdjMC0wLjEtMC4wNy0wLjEtMC4wNy0wLjFjLTAuMTQsMC0wLjE0LDAtMC4xNCwwQzkuMzUsMTQuMSw5LjM1LDE0LjEsOS4zNSwxNC4xICAgIGMwLjIyLDAsMC4yMiwwLDAuMjIsMHMwLjA3LDAsMC4wNy0wLjA3Yy0wLjA3LDAtMC4wNywwLTAuMDcsMGMtMC4yMiwwLTAuMjIsMC0wLjIyLDBjMC0wLjE3LDAtMC4xNywwLTAuMTdjMC4yMiwwLDAuMjIsMCwwLjIyLDAgICAgdi0wLjA3di0wLjA3Yy0wLjIyLDAtMC4yMiwwLTAuMjIsMGMwLTAuMTcsMC0wLjE3LDAtMC4xN2MwLjIyLDAsMC4yMiwwLDAuMjIsMGwwLDBjMC0wLjA4LDAtMC4wOCwwLTAuMDhjLTAuMjIsMC0wLjIyLDAtMC4yMiwwICAgIGMwLTAuMTYsMC0wLjE2LDAtMC4xNmMwLjIyLDAsMC4yMiwwLDAuMjIsMHMwLDAsMC0wLjA4bDAsMGMtMC4yMiwwLTAuMjIsMC0wLjIyLDBjMC0wLjE0LDAtMC4xNCwwLTAuMTRjMC4yMiwwLDAuMjIsMCwwLjIyLDAgICAgdi0wLjF2LTAuMDdjLTAuMjIsMC0wLjIyLDAtMC4yMiwwYzAtMC4xNSwwLTAuMTUsMC0wLjE1YzAuMjIsMCwwLjIyLDAsMC4yMiwwbDAsMGMwLTAuMDksMC0wLjA5LDAtMC4wOWMtMC4yMiwwLTAuMjIsMC0wLjIyLDAgICAgYzAtMC4wOCwwLTAuMDgsMC0wLjA4YzAuMjIsMCwwLjIyLDAsMC4yMiwwYzAuMDcsMCwwLjE3LTAuMDcsMC4xNy0wLjE0YzAtMC4xLDAtMC4xLTAuMS0wLjE3YzAuNDktMC41NiwwLjQ5LTAuNTYsMC40OS0wLjU2ICAgIGMwLTAuNzcsMC0wLjc3LDAtMC43N2MtMi41MiwwLTIuNTIsMC0yLjUyLDBjMCwwLjcsMCwwLjcsMCwwLjdjMC40OSwwLjcsMC40OSwwLjcsMC40OSwwLjdjLTAuMSwwLTAuMSwwLjEtMC4xLDAuMSAgICBjMCwwLjE0LDAuMSwwLjE0LDAuMTcsMC4xNHMwLjA3LDAsMC4wNywwYzAsMC4wOCwwLDAuMDgsMCwwLjA4Yy0wLjE0LDAtMC4xNCwwLTAuMTQsMHYwLjA5djAuMDhjMC4xNCwwLDAuMTQsMCwwLjE0LDAgICAgYzAsMC4xNCwwLDAuMTQsMCwwLjE0Yy0wLjE0LDAtMC4xNCwwLTAuMTQsMGwwLDBjMCwwLjEsMCwwLjEsMCwwLjFjMC4xNCwwLDAuMTQsMCwwLjE0LDBjMCwwLjE0LDAsMC4xNCwwLDAuMTQgICAgYy0wLjE0LDAtMC4xNCwwLTAuMTQsMHMwLDAsMCwwLjA4bDAsMGMwLjE0LDAsMC4xNCwwLDAuMTQsMGMwLDAuMTYsMCwwLjE2LDAsMC4xNmMtMC4xNCwwLTAuMTQsMC0wLjE0LDB2MC4wOHYwLjA3ICAgIGMwLjE0LDAsMC4xNCwwLDAuMTQsMGMwLDAuMTcsMCwwLjE3LDAsMC4xN2MtMC4xNCwwLTAuMTQsMC0wLjE0LDBsMCwwYzAsMC4wNywwLDAuMDcsMC4wNywwLjA3czAuMDcsMCwwLjA3LDAgICAgYzAsMC4xNywwLDAuMTcsMCwwLjE3Yy0wLjA3LDAtMC4wNywwLTAuMDcsMGMtMC4wNywwLTAuMDcsMC0wLjA3LDAuMDdjMCwwLDAsMCwwLjA3LDBzMC4wNywwLDAuMDcsMGMwLDAuMTUsMCwwLjE1LDAsMC4xNSAgICBjLTAuMDcsMC0wLjA3LDAtMC4wNywwYy0wLjA3LDAtMC4wNywwLTAuMDcsMC4xYzAsMCwwLDAsMC4wNywwczAuMDcsMCwwLjA3LDBjMCwwLjE0LDAsMC4xNCwwLDAuMTRjLTAuMDcsMC0wLjA3LDAtMC4wNywwICAgIGMtMC4wNywwLTAuMDcsMC4wNy0wLjA3LDAuMDdjMCwwLjEsMCwwLjEsMC4wNywwLjFzMC4wNywwLDAuMDcsMGMwLDAuMTUsMCwwLjE1LDAsMC4xNWMtMC4wNywwLTAuMDcsMC0wLjA3LDAgICAgYy0wLjA3LDAtMC4wNywwLTAuMDcsMGMwLDAuMDksMCwwLjA5LDAuMDcsMC4wOXMwLjA3LDAsMC4wNywwYzAsMC4xNSwwLDAuMTUsMCwwLjE1Yy0wLjA3LDAtMC4wNywwLTAuMDcsMCAgICBjLTAuMDcsMC0wLjA3LDAtMC4wNywwLjA3YzAsMCwwLDAsMC4wNywwczAuMDcsMCwwLjA3LDBjMCwwLjE3LDAsMC4xNywwLDAuMTdjLTAuMDcsMC0wLjA3LDAtMC4wNywwYy0wLjA3LDAtMC4wNywwLjA3LTAuMDcsMC4wNyAgICBzMCwwLjA3LDAuMDcsMC4wN3MwLjA3LDAsMC4wNywwYzAsMC4xNywwLDAuMTcsMCwwLjE3Yy0wLjA3LDAtMC4wNywwLTAuMDcsMGMtMC4wNywwLTAuMDcsMC0wLjA3LDB2MC4wOCAgICBjLTAuNDEsMC4wNy0wLjczLDAuMzEtMC43MywwLjc5YzAsMC4zMiwwLDAuMzksMC4xLDAuODhjMCwwLjM4LDAuMzEsMC43NywwLjcsMC44NGwwLDBjMCwwLjEsMCwwLjEsMCwwLjFjMC4xNCwwLDAuMTQsMCwwLjE0LDAgICAgYzAsMC4xNCwwLDAuMTQsMCwwLjE0Yy0wLjE0LDAtMC4xNCwwLTAuMTQsMHMwLDAsMCwwLjA4bDAsMGMwLjE0LDAsMC4xNCwwLDAuMTQsMGMwLDAuMTcsMCwwLjE3LDAsMC4xN2MtMC4xNCwwLTAuMTQsMC0wLjE0LDAgICAgdjAuMDd2MC4wN2MwLjE0LDAsMC4xNCwwLDAuMTQsMGMwLDAuMTcsMCwwLjE3LDAsMC4xN2MtMC4xNCwwLTAuMTQsMC0wLjE0LDBsMCwwYzAsMC4wNywwLDAuMDcsMCwwLjA3YzAuMTQsMCwwLjE0LDAsMC4xNCwwICAgIGMwLDAuMTcsMCwwLjE3LDAsMC4xN2MtMC4xNCwwLTAuMTQsMC0wLjE0LDBzMCwwLDAsMC4wN2wwLDBjMC4xNCwwLDAuMTQsMCwwLjE0LDBjMCwwLjE1LDAsMC4xNSwwLDAuMTVjLTAuMTQsMC0wLjE0LDAtMC4xNCwwICAgIHYwLjF2MC4wN2MwLjE0LDAsMC4xNCwwLDAuMTQsMGMwLDAuMTcsMCwwLjE3LDAsMC4xN2MtMC4xNCwwLTAuMTQsMC0wLjE0LDBsMCwwYzAsMC4wNywwLDAuMDcsMC4wNywwLjA3czAuMDcsMCwwLjA3LDAgICAgYzAsMC4xNSwwLDAuMTUsMCwwLjE1Yy0wLjA3LDAtMC4wNywwLTAuMDcsMGMtMC4wNywwLTAuMDcsMC0wLjA3LDAuMDljMCwwLDAsMCwwLjA3LDBzMC4wNywwLDAuMDcsMGMwLDAuMDgsMCwwLjA4LDAsMC4wOCAgICBjLTAuNjIsMC0wLjYyLDAtMC42MiwwYzAsMC4yNCwwLDAuMjQsMCwwLjI0Yy0yLjksMC0yLjksMC0yLjksMGMtMC4yMiwwLTAuMzksMC4wNy0wLjM5LDAuMTRjMCwwLjA4LDAsMC4wOCwwLDAuMDggICAgYzAsMC4wOSwwLjE3LDAuMTYsMC4zOSwwLjE2YzIuOS0wLjA3LDIuOS0wLjA3LDIuOS0wLjA3YzAsMC4xNSwwLDAuMTUsMCwwLjE1YzAuNTUsMC43LDAuNTUsMC43LDAuNTUsMC43YzEuNSwwLDEuNSwwLDEuNSwwICAgIGMwLjUzLTAuNywwLjUzLTAuNywwLjUzLTAuN2MwLTAuMTUsMC0wLjE1LDAtMC4xNWMyLjgzLDAsMi44MywwLDIuODMsMGMwLjI0LTAuMDksMC40OC0wLjA5LDAuNDgtMC4xNyAgICBjLTAuMDktMC4xNC0wLjA5LTAuMTQtMC4wOS0wLjE0YzAtMC4xLTAuMTUtMC4xLTAuMzktMC4xYy0yLjgzLDAtMi44MywwLTIuODMsMGMwLTAuMTQsMC0wLjE0LDAtMC4xNGMtMC43NywwLTAuNzcsMC0wLjc3LDAgICAgYzAtMC4wOCwwLTAuMDgsMC0wLjA4YzAuMTQsMCwwLjE0LDAsMC4xNCwwczAuMSwwLDAuMS0wLjA5aC0wLjFjLTAuMjEsMC0wLjIxLDAtMC4yMSwwYzAtMC4xNSwwLTAuMTUsMC0wLjE1ICAgIGMwLjIxLDAsMC4yMSwwLDAuMjEsMHYtMC4wN3YtMC4xYy0wLjIxLDAtMC4yMSwwLTAuMjEsMGMwLTAuMTQsMC0wLjE0LDAtMC4xNGMwLjIxLDAsMC4yMSwwLDAuMjEsMGwwLDBjMC0wLjEsMC0wLjEsMC0wLjEgICAgYy0wLjIxLDAtMC4yMSwwLTAuMjEsMGMwLTAuMTUsMC0wLjE1LDAtMC4xNWMwLjIxLDAsMC4yMSwwLDAuMjEsMHMwLDAsMC0wLjA3bDAsMGMtMC4yMSwwLTAuMjEsMC0wLjIxLDBjMC0wLjE3LDAtMC4xNywwLTAuMTcgICAgYzAuMjEsMCwwLjIxLDAsMC4yMSwwdi0wLjA3di0wLjA3Yy0wLjIxLDAtMC4yMSwwLTAuMjEsMGMwLTAuMSwwLTAuMSwwLTAuMWMwLjIxLTAuMDcsMC4yMS0wLjA3LDAuMjEtMC4wN2wwLDAgICAgYzAtMC4wNywwLTAuMDcsMC0wLjA3Yy0wLjIxLDAtMC4yMSwwLTAuMjEsMGMwLTAuMTcsMC0wLjE3LDAtMC4xN2MwLjIxLDAsMC4yMSwwLDAuMjEsMGwwLDBjMC0wLjA4LDAtMC4wOCwwLTAuMDggICAgYy0wLjIxLDAtMC4yMSwwLTAuMjEsMGMwLTAuMTQsMC0wLjE0LDAtMC4xNGMwLjIxLDAsMC4yMSwwLDAuMjEsMHMwLDAsMC0wLjFsMCwwYzEuMzYsMCwzLjYzLTAuMDcsNy4zOC0wLjA3ICAgIEMyMi44MiwxOC4wNSwyMi44MiwxNC4yNSwyMi44MiwxMy4zMXoiLz4mI3hhOwk8L2c+JiN4YTs8L2c+JiN4YTs8L3N2Zz4=;" parent="1" vertex="1">
          <mxGeometry x="163" y="-551" width="63" height="60" as="geometry" />
        </mxCell>
        <mxCell id="AcxdMaKK0mU5kZiv2lnr-5" value="Preview&lt;br&gt;Monitoring&lt;br&gt;" style="aspect=fixed;html=1;perimeter=none;align=center;shadow=0;dashed=0;image;fontSize=12;image=img/lib/mscae/TaskVM.svg;" parent="1" vertex="1">
          <mxGeometry x="263" y="-881" width="63" height="60" as="geometry" />
        </mxCell>
        <mxCell id="AcxdMaKK0mU5kZiv2lnr-6" value="Program" style="aspect=fixed;html=1;perimeter=none;align=center;shadow=0;dashed=0;image;fontSize=12;image=img/lib/mscae/WebApp_WebJobs.svg;labelBackgroundColor=none;" parent="1" vertex="1">
          <mxGeometry x="301" y="-709" width="64" height="64" as="geometry" />
        </mxCell>
        <mxCell id="AcxdMaKK0mU5kZiv2lnr-8" value="Streaming&#xa;Endpoint&#xa;" style="shape=image;verticalLabelPosition=bottom;labelBackgroundColor=#ffffff;verticalAlign=top;aspect=fixed;imageAspect=0;image=data:image/svg+xml,PHN2ZyB4bWxuczpjYz0iaHR0cDovL2NyZWF0aXZlY29tbW9ucy5vcmcvbnMjIiB4bWxuczpkYz0iaHR0cDovL3B1cmwub3JnL2RjL2VsZW1lbnRzLzEuMS8iIHhtbG5zOmlua3NjYXBlPSJodHRwOi8vd3d3Lmlua3NjYXBlLm9yZy9uYW1lc3BhY2VzL2lua3NjYXBlIiB4bWxuczpyZGY9Imh0dHA6Ly93d3cudzMub3JnLzE5OTkvMDIvMjItcmRmLXN5bnRheC1ucyMiIHhtbG5zOnNvZGlwb2RpPSJodHRwOi8vc29kaXBvZGkuc291cmNlZm9yZ2UubmV0L0RURC9zb2RpcG9kaS0wLmR0ZCIgeG1sbnM6c3ZnPSJodHRwOi8vd3d3LnczLm9yZy8yMDAwL3N2ZyIgeG1sbnM9Imh0dHA6Ly93d3cudzMub3JnLzIwMDAvc3ZnIiB4bWxuczp4bGluaz0iaHR0cDovL3d3dy53My5vcmcvMTk5OS94bGluayIgdmVyc2lvbj0iMS4xIiBpZD0ic3ZnOTI3NzciIGlua3NjYXBlOnZlcnNpb249IjAuOTIuMyAoMjQwNTU0NiwgMjAxOC0wMy0xMSkiIHNvZGlwb2RpOmRvY25hbWU9InBsYXkuc3ZnIiB4PSIwcHgiIHk9IjBweCIgdmlld0JveD0iMCAwIDI3IDI3IiBzdHlsZT0iZW5hYmxlLWJhY2tncm91bmQ6bmV3IDAgMCAyNyAyNzsiIHhtbDpzcGFjZT0icHJlc2VydmUiPiYjeGE7PHNvZGlwb2RpOm5hbWVkdmlldyBib3JkZXJjb2xvcj0iIzY2NjY2NiIgYm9yZGVyb3BhY2l0eT0iMSIgZml0LW1hcmdpbi1ib3R0b209IjAiIGZpdC1tYXJnaW4tbGVmdD0iMCIgZml0LW1hcmdpbi1yaWdodD0iMCIgZml0LW1hcmdpbi10b3A9IjAiIGdyaWR0b2xlcmFuY2U9IjEwIiBndWlkZXRvbGVyYW5jZT0iMTAiIGlkPSJuYW1lZHZpZXc5Mjc3OSIgaW5rc2NhcGU6Y3VycmVudC1sYXllcj0ic3ZnOTI3NzciIGlua3NjYXBlOmN4PSIxNy45OTk1MjIiIGlua3NjYXBlOmN5PSIxNy45OTk4NTYiIGlua3NjYXBlOnBhZ2VvcGFjaXR5PSIwIiBpbmtzY2FwZTpwYWdlc2hhZG93PSIyIiBpbmtzY2FwZTp3aW5kb3ctaGVpZ2h0PSIxMDE3IiBpbmtzY2FwZTp3aW5kb3ctbWF4aW1pemVkPSIxIiBpbmtzY2FwZTp3aW5kb3ctd2lkdGg9IjE5MjAiIGlua3NjYXBlOndpbmRvdy14PSItOCIgaW5rc2NhcGU6d2luZG93LXk9Ii04IiBpbmtzY2FwZTp6b29tPSIyNC4wODMxNCIgb2JqZWN0dG9sZXJhbmNlPSIxMCIgcGFnZWNvbG9yPSIjZmZmZmZmIiBzaG93Z3JpZD0iZmFsc2UiPiYjeGE7CTwvc29kaXBvZGk6bmFtZWR2aWV3PiYjeGE7PGcgaWQ9Imc5Mjc3NSIgdHJhbnNmb3JtPSJ0cmFuc2xhdGUoMS45OTMyMDk4ZS02LDQuMzc4NDU4MWUtNSkiPiYjeGE7CTx0aXRsZSBpZD0idGl0bGU5Mjc2MCI+UGFnZS0xPC90aXRsZT4mI3hhOwk8ZyBpZD0iZ3JvdXA1OTA1LTEiIHRyYW5zZm9ybT0idHJhbnNsYXRlKDAuNzQ5OTkzLC0wLjc0OTk5MykiPiYjeGE7CQk8dGl0bGUgaWQ9InRpdGxlOTI3NjIiPlBsYXk8L3RpdGxlPiYjeGE7CQk8ZyBpZD0ic2hhcGU1OTA2LTIiPiYjeGE7CQkJPHRpdGxlIGlkPSJ0aXRsZTkyNzY0Ij5TaGVldC41OTA2PC90aXRsZT4mI3hhOwkJCSYjeGE7CQkJCTxwYXRoIGlkPSJwYXRoOTI3NjYiIGlua3NjYXBlOmNvbm5lY3Rvci1jdXJ2YXR1cmU9IjAiIHN0eWxlPSJmaWxsOm5vbmU7c3Ryb2tlOiM1NTZBOEE7c3Ryb2tlLXdpZHRoOjEuNTtzdHJva2UtbGluZWNhcDpyb3VuZDtzdHJva2UtbGluZWpvaW46cm91bmQ7c3Ryb2tlLW1pdGVybGltaXQ6MzsiIGQ9IiAgICAgTTMsMS41aDE5LjVjMS42OCwwLDMsMS4zOCwzLDNWMjRjMCwxLjY4LTEuMzIsMy0zLDNIM2MtMS42MiwwLTMtMS4zMi0zLTNWNC41QzAsMi44OCwxLjM4LDEuNSwzLDEuNSIvPiYjeGE7CQk8L2c+JiN4YTsJCTxnIGlkPSJzaGFwZTU5MDctNSIgdHJhbnNmb3JtPSJ0cmFuc2xhdGUoNi43Nzk4MiwtNS4yMjAwNCkiPiYjeGE7CQkJPHRpdGxlIGlkPSJ0aXRsZTkyNzY5Ij5TaGVldC41OTA3PC90aXRsZT4mI3hhOwkJCTxwYXRoIGlkPSJwYXRoOTI3NzEiIGlua3NjYXBlOmNvbm5lY3Rvci1jdXJ2YXR1cmU9IjAiIHN0eWxlPSJmaWxsOiMyQkM3RjQ7IiBkPSJNMCwyN1YxMmwxMy4yLDcuNTZMMCwyN3oiLz4mI3hhOwkJPC9nPiYjeGE7CTwvZz4mI3hhOzwvZz4mI3hhOzwvc3ZnPg==;spacingTop=2;" parent="1" vertex="1">
          <mxGeometry x="440" y="-703.5" width="53" height="53" as="geometry" />
        </mxCell>
        <mxCell id="AcxdMaKK0mU5kZiv2lnr-9" value="Azure Blob&lt;br&gt;Storage&lt;br&gt;" style="aspect=fixed;html=1;perimeter=none;align=center;shadow=0;dashed=0;image;fontSize=12;image=img/lib/mscae/BlobBlock.svg;" parent="1" vertex="1">
          <mxGeometry x="435.5" y="-563" width="62" height="53" as="geometry" />
        </mxCell>
        <mxCell id="AcxdMaKK0mU5kZiv2lnr-10" value="Multi-Protocol&lt;br&gt;Dynamic &lt;br&gt;Packaging/&lt;br&gt;Multi-DRM&lt;br&gt;" style="aspect=fixed;html=1;perimeter=none;align=center;shadow=0;dashed=0;image;fontSize=12;image=img/lib/mscae/VPN_Gateway.svg;" parent="1" vertex="1">
          <mxGeometry x="578" y="-702" width="45" height="50" as="geometry" />
        </mxCell>
        <mxCell id="AcxdMaKK0mU5kZiv2lnr-11" value="Azure CDN" style="aspect=fixed;html=1;perimeter=none;align=center;shadow=0;dashed=0;image;fontSize=12;image=img/lib/mscae/Content_Delivery_Network.svg;" parent="1" vertex="1">
          <mxGeometry x="686" y="-699" width="96" height="44" as="geometry" />
        </mxCell>
        <mxCell id="AcxdMaKK0mU5kZiv2lnr-12" value="Azure Media&lt;br&gt;Player in Browser&lt;br&gt;" style="aspect=fixed;html=1;perimeter=none;align=center;shadow=0;dashed=0;image;fontSize=12;image=img/lib/mscae/Browser.svg;spacingTop=5;" parent="1" vertex="1">
          <mxGeometry x="801.2499999999997" y="-841" width="50" height="42.5" as="geometry" />
        </mxCell>
        <mxCell id="AcxdMaKK0mU5kZiv2lnr-13" value="Azure Media Player&lt;br&gt;in Mobile App&lt;br&gt;" style="aspect=fixed;html=1;perimeter=none;align=center;shadow=0;dashed=0;image;fontSize=12;image=img/lib/mscae/App_Service_Mobile_App.svg;" parent="1" vertex="1">
          <mxGeometry x="808.9999999999999" y="-621" width="34.5" height="50" as="geometry" />
        </mxCell>
        <mxCell id="AcxdMaKK0mU5kZiv2lnr-14" value="Cloud DRM&lt;br&gt;License / Key&lt;br&gt;Delivery Service&lt;br&gt;" style="aspect=fixed;html=1;perimeter=none;align=center;shadow=0;dashed=0;image;fontSize=12;image=img/lib/mscae/KeyVault.svg;spacingTop=3;" parent="1" vertex="1">
          <mxGeometry x="913" y="-722" width="45" height="50" as="geometry" />
        </mxCell>
        <mxCell id="AcxdMaKK0mU5kZiv2lnr-29" style="edgeStyle=orthogonalEdgeStyle;rounded=0;orthogonalLoop=1;jettySize=auto;html=1;exitX=0.364;exitY=0.004;exitDx=0;exitDy=0;exitPerimeter=0;entryX=1.043;entryY=0.678;entryDx=0;entryDy=0;entryPerimeter=0;strokeColor=#808080;" parent="1" source="AcxdMaKK0mU5kZiv2lnr-14" target="AcxdMaKK0mU5kZiv2lnr-12" edge="1">
          <mxGeometry relative="1" as="geometry">
            <mxPoint x="945.5517241379312" y="-691.5862068965517" as="sourcePoint" />
            <mxPoint x="862.1034482758621" y="-809.5172413793103" as="targetPoint" />
            <Array as="points">
              <mxPoint x="929" y="-812" />
              <mxPoint x="913" y="-812" />
            </Array>
          </mxGeometry>
        </mxCell>
        <mxCell id="p4TXbPgcI1VuwZD0pCjf-1" value="&lt;TraficLight&gt;&#xa;Azure Function" style="shape=image;verticalLabelPosition=bottom;labelBackgroundColor=none;verticalAlign=top;aspect=fixed;imageAspect=0;image=data:image/svg+xml,PHN2ZyB4bWxuczpkYz0iaHR0cDovL3B1cmwub3JnL2RjL2VsZW1lbnRzLzEuMS8iIHhtbG5zOmNjPSJodHRwOi8vY3JlYXRpdmVjb21tb25zLm9yZy9ucyMiIHhtbG5zOnJkZj0iaHR0cDovL3d3dy53My5vcmcvMTk5OS8wMi8yMi1yZGYtc3ludGF4LW5zIyIgeG1sbnM6c3ZnPSJodHRwOi8vd3d3LnczLm9yZy8yMDAwL3N2ZyIgeG1sbnM9Imh0dHA6Ly93d3cudzMub3JnLzIwMDAvc3ZnIiB4bWxuczpzb2RpcG9kaT0iaHR0cDovL3NvZGlwb2RpLnNvdXJjZWZvcmdlLm5ldC9EVEQvc29kaXBvZGktMC5kdGQiIHhtbG5zOmlua3NjYXBlPSJodHRwOi8vd3d3Lmlua3NjYXBlLm9yZy9uYW1lc3BhY2VzL2lua3NjYXBlIiB2ZXJzaW9uPSIxLjEiIGlkPSJzdmcyNjE4OCIgeD0iMHB4IiB5PSIwcHgiIHZpZXdCb3g9IjAgMCA1Ny4zMDk5MyA1Mi44MTk5OTkiIHhtbDpzcGFjZT0icHJlc2VydmUiIHNvZGlwb2RpOmRvY25hbWU9ImF6dXJlX2Z1bmN0aW9ucy5zdmciIHdpZHRoPSI1Ny4zMDk5MjkiIGhlaWdodD0iNTIuODIiIGlua3NjYXBlOnZlcnNpb249IjAuOTIuMyAoMjQwNTU0NiwgMjAxOC0wMy0xMSkiPjxtZXRhZGF0YSBpZD0ibWV0YWRhdGE0MTk3MTciPjxyZGY6UkRGPjxjYzpXb3JrIHJkZjphYm91dD0iIj48ZGM6Zm9ybWF0PmltYWdlL3N2Zyt4bWw8L2RjOmZvcm1hdD48ZGM6dHlwZSByZGY6cmVzb3VyY2U9Imh0dHA6Ly9wdXJsLm9yZy9kYy9kY21pdHlwZS9TdGlsbEltYWdlIi8+PGRjOnRpdGxlLz48L2NjOldvcms+PC9yZGY6UkRGPjwvbWV0YWRhdGE+PGRlZnMgaWQ9ImRlZnM0MTk3MTUiPiYjeGE7CSYjeGE7CSYjeGE7JiN4YTsJCSYjeGE7CQkmI3hhOwkJJiN4YTsJCSYjeGE7CQkmI3hhOwkmI3hhOwkJCSYjeGE7CQkJJiN4YTsJCQkmI3hhOwkJCQkmI3hhOwkJJiN4YTsJCQkmI3hhOwkJCSYjeGE7CQkJJiN4YTsJCSYjeGE7CQkJJiN4YTsJCQkmI3hhOwkJCSYjeGE7CQkmI3hhOwkJCSYjeGE7CQkJJiN4YTsJCQkmI3hhOwkJPC9kZWZzPiYjeGE7PGZpbHRlciBpZD0iZmlsdGVyXzIiPiYjeGE7CTxmZUdhdXNzaWFuQmx1ciBpZD0iZmVHYXVzc2lhbkJsdXIyNjE0NSIgc3RkRGV2aWF0aW9uPSIyIi8+JiN4YTs8L2ZpbHRlcj4mI3hhOzxzb2RpcG9kaTpuYW1lZHZpZXcgYm9yZGVyY29sb3I9IiM2NjY2NjYiIGJvcmRlcm9wYWNpdHk9IjEiIGZpdC1tYXJnaW4tYm90dG9tPSIwIiBmaXQtbWFyZ2luLWxlZnQ9IjAiIGZpdC1tYXJnaW4tcmlnaHQ9IjAiIGZpdC1tYXJnaW4tdG9wPSIwIiBncmlkdG9sZXJhbmNlPSIxMCIgZ3VpZGV0b2xlcmFuY2U9IjEwIiBpZD0ibmFtZWR2aWV3MjYxOTAiIGlua3NjYXBlOmN1cnJlbnQtbGF5ZXI9InN2ZzI2MTg4IiBpbmtzY2FwZTpjeD0iOS4zODYxNjQ5IiBpbmtzY2FwZTpjeT0iMTguMTA2MzA2IiBpbmtzY2FwZTpwYWdlb3BhY2l0eT0iMCIgaW5rc2NhcGU6cGFnZXNoYWRvdz0iMiIgaW5rc2NhcGU6d2luZG93LWhlaWdodD0iMTAxNyIgaW5rc2NhcGU6d2luZG93LW1heGltaXplZD0iMSIgaW5rc2NhcGU6d2luZG93LXdpZHRoPSIxOTIwIiBpbmtzY2FwZTp3aW5kb3cteD0iLTgiIGlua3NjYXBlOndpbmRvdy15PSItOCIgaW5rc2NhcGU6em9vbT0iOS4wMzkyMDQ2IiBvYmplY3R0b2xlcmFuY2U9IjEwIiBwYWdlY29sb3I9IiNmZmZmZmYiIHNob3dncmlkPSJmYWxzZSI+JiN4YTsJPC9zb2RpcG9kaTpuYW1lZHZpZXc+JiN4YTs8cGF0aCBkPSJtIDU2LjkzNzkxNCwyNi43NjYyIGMgMC41NCwtMC41MyAwLjQ1LC0xLjUyIDAsLTIuMDYgbCAtMi43NywtMi43NyAtMTIuMzYsLTEyIGMgLTAuNTMsLTAuNTMgLTEuMzQsLTAuNTMgLTEuOTYsMCAtMC41NCwwLjU0IC0wLjcyLDEuNTMgMCwyLjA2IGwgMTIuOTcsMTIuNzEgYyAwLjU0LDAuNTQgMC41NCwxLjUzIDAsMi4wNiBsIC0xMy4yNCwxMy4xNiBjIC0wLjU0LDAuNTQgLTAuNTQsMS41MiAwLDIuMDYgMC41MywwLjU0IDEuNTIsMC40NSAxLjk3LDAgbCAxMi4yNiwtMTIuMTcgYyAwLDAgMCwwIDAuMDksLTAuMDkgeiIgc3R5bGU9ImNsaXAtcnVsZTpldmVub2RkO2ZpbGw6IzM5OTljNjtmaWxsLXJ1bGU6ZXZlbm9kZCIgaW5rc2NhcGU6Y29ubmVjdG9yLWN1cnZhdHVyZT0iMCIgaWQ9InBhdGgyNjE1OCIvPjxwYXRoIGQ9Im0gMC4zNzIwMTM5LDI2Ljc2NjIgYyAtMC41NCwtMC41MyAtMC40NSwtMS41MiAwLC0yLjA2IGwgMi43NywtMi43NyAxMi4zNTAwMDAxLC0xMiBjIDAuNTQsLTAuNTMgMS4zNSwtMC41MyAxLjk3LDAgMC41NCwwLjU0IDAuNzIsMS41MyAwLDIuMDYgbCAtMTIuNzEwMDAwMSwxMi43MSBjIC0wLjUzLDAuNTQgLTAuNTMsMS41MyAwLDIuMDYgbCAxMi45ODAwMDAxLDEzLjE2IGMgMC41NCwwLjU0IDAuNTQsMS41MiAwLDIuMDYgLTAuNTMsMC41NCAtMS41MiwwLjQ1IC0xLjk3LDAgTCAzLjIzMjAxMzksMjkuOTk2MiBjIDAsMCAwLDAgLTAuMDksLTAuMDkgeiIgc3R5bGU9ImNsaXAtcnVsZTpldmVub2RkO2ZpbGw6IzM5OTljNjtmaWxsLXJ1bGU6ZXZlbm9kZCIgaW5rc2NhcGU6Y29ubmVjdG9yLWN1cnZhdHVyZT0iMCIgaWQ9InBhdGgyNjE2NiIvPjxwYXRoIGQ9Im0gNDIuNjE1MDE0LDAgaCAtMTcuNDUgbCAtOS40LDI2LjUgMTEuNDYsMC4wOSAtOC45NSwyNi4yMyAyNC43LC0zNSBoIC0xMS45OSB6IiBzdHlsZT0iY2xpcC1ydWxlOmV2ZW5vZGQ7ZmlsbDojZmNkMTE2O2ZpbGwtcnVsZTpldmVub2RkIiBpbmtzY2FwZTpjb25uZWN0b3ItY3VydmF0dXJlPSIwIiBpZD0icGF0aDI2MTc0Ii8+PHBhdGggZD0iTSAzMC45ODEzMTQsMTcuODIgNDIuNjIxMzE0LDAgaCAtOS4xMyBsIC05LjY3LDIyLjAyIDExLjQ2LDAuMDkgLTE3LjAxLDMwLjcxIDI0LjcxLC0zNSB6IiBzdHlsZT0iY2xpcC1ydWxlOmV2ZW5vZGQ7ZmlsbDojZmY4YzAwO2ZpbGwtb3BhY2l0eTowLjM7ZmlsbC1ydWxlOmV2ZW5vZGQiIGlua3NjYXBlOmNvbm5lY3Rvci1jdXJ2YXR1cmU9IjAiIGlkPSJwYXRoMjYxODIiLz4mI3hhOzwvc3ZnPg==;fontStyle=0;fontColor=#0b4fa8;" parent="1" vertex="1">
          <mxGeometry x="845" y="515" width="57" height="53" as="geometry" />
        </mxCell>
        <mxCell id="p4TXbPgcI1VuwZD0pCjf-7" value="CI/CD with &lt;br&gt;Azure DevOps" style="image;sketch=0;aspect=fixed;html=1;points=[];align=center;fontSize=12;image=img/lib/mscae/Azure_DevOps.svg;" parent="1" vertex="1">
          <mxGeometry x="1166" y="526" width="42" height="42" as="geometry" />
        </mxCell>
        <mxCell id="p4TXbPgcI1VuwZD0pCjf-9" value="Storage queue" style="shape=image;verticalLabelPosition=bottom;labelBackgroundColor=none;verticalAlign=top;aspect=fixed;imageAspect=0;image=data:image/svg+xml,PHN2ZyB4bWxuczpjYz0iaHR0cDovL2NyZWF0aXZlY29tbW9ucy5vcmcvbnMjIiB4bWxuczpkYz0iaHR0cDovL3B1cmwub3JnL2RjL2VsZW1lbnRzLzEuMS8iIHhtbG5zOmlua3NjYXBlPSJodHRwOi8vd3d3Lmlua3NjYXBlLm9yZy9uYW1lc3BhY2VzL2lua3NjYXBlIiB4bWxuczpyZGY9Imh0dHA6Ly93d3cudzMub3JnLzE5OTkvMDIvMjItcmRmLXN5bnRheC1ucyMiIHhtbG5zOnNvZGlwb2RpPSJodHRwOi8vc29kaXBvZGkuc291cmNlZm9yZ2UubmV0L0RURC9zb2RpcG9kaS0wLmR0ZCIgeG1sbnM6c3ZnPSJodHRwOi8vd3d3LnczLm9yZy8yMDAwL3N2ZyIgeG1sbnM9Imh0dHA6Ly93d3cudzMub3JnLzIwMDAvc3ZnIiB4bWxuczp4bGluaz0iaHR0cDovL3d3dy53My5vcmcvMTk5OS94bGluayIgdmVyc2lvbj0iMS4xIiBpZD0ic3ZnMTA5NTY5IiBpbmtzY2FwZTp2ZXJzaW9uPSIwLjkyLjMgKDI0MDU1NDYsIDIwMTgtMDMtMTEpIiBzb2RpcG9kaTpkb2NuYW1lPSJhenVyZV9xdWV1ZV9zdG9yYWdlLnN2ZyIgeD0iMHB4IiB5PSIwcHgiIHZpZXdCb3g9IjAgMCA3My43IDYzLjc5IiBzdHlsZT0iZW5hYmxlLWJhY2tncm91bmQ6bmV3IDAgMCA3My43IDYzLjc5OyIgeG1sOnNwYWNlPSJwcmVzZXJ2ZSI+JiN4YTs8c29kaXBvZGk6bmFtZWR2aWV3IGJvcmRlcmNvbG9yPSIjNjY2NjY2IiBib3JkZXJvcGFjaXR5PSIxIiBmaXQtbWFyZ2luLWJvdHRvbT0iMCIgZml0LW1hcmdpbi1sZWZ0PSIwIiBmaXQtbWFyZ2luLXJpZ2h0PSIwIiBmaXQtbWFyZ2luLXRvcD0iMCIgZ3JpZHRvbGVyYW5jZT0iMTAiIGd1aWRldG9sZXJhbmNlPSIxMCIgaWQ9Im5hbWVkdmlldzEwOTU3MSIgaW5rc2NhcGU6Y3VycmVudC1sYXllcj0ic3ZnMTA5NTY5IiBpbmtzY2FwZTpjeD0iNDkuMTMzNjc5IiBpbmtzY2FwZTpjeT0iNDIuNTI3NDQ1IiBpbmtzY2FwZTpwYWdlb3BhY2l0eT0iMCIgaW5rc2NhcGU6cGFnZXNoYWRvdz0iMiIgaW5rc2NhcGU6d2luZG93LWhlaWdodD0iMTAxNyIgaW5rc2NhcGU6d2luZG93LW1heGltaXplZD0iMSIgaW5rc2NhcGU6d2luZG93LXdpZHRoPSIxOTIwIiBpbmtzY2FwZTp3aW5kb3cteD0iLTgiIGlua3NjYXBlOndpbmRvdy15PSItOCIgaW5rc2NhcGU6em9vbT0iOS4wNTE4NzkxIiBvYmplY3R0b2xlcmFuY2U9IjEwIiBwYWdlY29sb3I9IiNmZmZmZmYiIHNob3dncmlkPSJmYWxzZSI+JiN4YTsJPC9zb2RpcG9kaTpuYW1lZHZpZXc+JiN4YTs8ZyBpZD0iZzEwOTU2NyIgdHJhbnNmb3JtPSJ0cmFuc2xhdGUoLTQuMDI2MzIsLTQuMDIzODUyNCkiPiYjeGE7CTx0aXRsZSBpZD0idGl0bGUxMDk1MjMiPlBhZ2UtMTwvdGl0bGU+JiN4YTsJPGcgaWQ9Imdyb3VwMjc0LTEiIHRyYW5zZm9ybT0idHJhbnNsYXRlKDQuMDI2MzIsLTQuMDI2MzIpIj4mI3hhOwkJPHRpdGxlIGlkPSJ0aXRsZTEwOTUyNSI+QXp1cmUgUXVldWUgU3RvcmFnZSAoRGVwcmVjYXRlZCk8L3RpdGxlPiYjeGE7CQk8ZyBpZD0iZ3JvdXAyNzUtMiI+JiN4YTsJCQk8dGl0bGUgaWQ9InRpdGxlMTA5NTI3Ij5TaGVldC4yNzU8L3RpdGxlPiYjeGE7CQk8L2c+JiN4YTsJCTxnIGlkPSJncm91cDI3Ni0zIj4mI3hhOwkJCTx0aXRsZSBpZD0idGl0bGUxMDk1MzAiPnBhdGhzPC90aXRsZT4mI3hhOwkJCTxnIGlkPSJncm91cDI3Ny00Ij4mI3hhOwkJCQk8dGl0bGUgaWQ9InRpdGxlMTA5NTMyIj5TaGVldC4yNzc8L3RpdGxlPiYjeGE7CQkJCTxnIGlkPSJzaGFwZTI3OC01IiB0cmFuc2Zvcm09InRyYW5zbGF0ZSg0MS40MjAzLC0yOS45NDcpIj4mI3hhOwkJCQkJPHRpdGxlIGlkPSJ0aXRsZTEwOTUzNCI+U2hlZXQuMjc4PC90aXRsZT4mI3hhOwkJCQkJPHBhdGggaWQ9InBhdGgxMDk1MzYiIGlua3NjYXBlOmNvbm5lY3Rvci1jdXJ2YXR1cmU9IjAiIHN0eWxlPSJmaWxsOiMwMDc4RDc7IiBkPSJNMTUuOTUsNjUuNjFIMGw3Ljk3LDYuMjNMMTUuOTUsNjUuNjF6Ii8+JiN4YTsJCQkJPC9nPiYjeGE7CQkJCTxnIGlkPSJzaGFwZTI3OS03IiB0cmFuc2Zvcm09InRyYW5zbGF0ZSgxNy4xMTI2LC0yNC4zMDc3KSI+JiN4YTsJCQkJCTx0aXRsZSBpZD0idGl0bGUxMDk1MzkiPlNoZWV0LjI3OTwvdGl0bGU+JiN4YTsJCQkJCTxwYXRoIGlkPSJwYXRoMTA5NTQxIiBpbmtzY2FwZTpjb25uZWN0b3ItY3VydmF0dXJlPSIwIiBzdHlsZT0iZmlsbDojMDA3OEQ3OyIgZD0iTTcuOTcsNjguMzRjLTAuMTksMC0wLjM5LDAtMC41OC0wLjJMMCw2Mi4zMSAgICAgICB2OS41M2gxNi45MnYtOS43M2wtNy45Nyw2LjAzQzguNTYsNjguMzQsOC4xNyw2OC4zNCw3Ljk3LDY4LjM0eiIvPiYjeGE7CQkJCTwvZz4mI3hhOwkJCQk8ZyBpZD0ic2hhcGUyODAtOSIgdHJhbnNmb3JtPSJ0cmFuc2xhdGUoNDEuMjI1OCwtMjQuMzA3NykiPiYjeGE7CQkJCQk8dGl0bGUgaWQ9InRpdGxlMTA5NTQ0Ij5TaGVldC4yODA8L3RpdGxlPiYjeGE7CQkJCQk8cGF0aCBpZD0icGF0aDEwOTU0NiIgaW5rc2NhcGU6Y29ubmVjdG9yLWN1cnZhdHVyZT0iMCIgc3R5bGU9ImZpbGw6IzAwNzhENzsiIGQ9Ik04LjE3LDY4LjM0Yy0wLjIsMC0wLjU5LDAtMC41OS0wLjJMMCw2Mi4zMSAgICAgICB2OS41M2gxNi45MnYtOS43M2wtNy45Nyw2LjAzQzguNTYsNjguMzQsOC4zNiw2OC4zNCw4LjE3LDY4LjM0eiIvPiYjeGE7CQkJCTwvZz4mI3hhOwkJCQk8ZyBpZD0ic2hhcGUyODEtMTEiPiYjeGE7CQkJCQk8dGl0bGUgaWQ9InRpdGxlMTA5NTQ5Ij5TaGVldC4yODE8L3RpdGxlPiYjeGE7CQkJCQk8cGF0aCBpZD0icGF0aDEwOTU1MSIgaW5rc2NhcGU6Y29ubmVjdG9yLWN1cnZhdHVyZT0iMCIgc3R5bGU9ImZpbGw6IzAwNzhENzsiIGQ9Ik01NS40Miw4LjA1SDE4LjQ3TDAsMzkuOTRsMTguNDcsMzEuOWgzNi43NiAgICAgICBsMTguNDctMzEuOUw1NS40Miw4LjA1eiBNNjEuODQsNTMuNTZIMTEuNDdjLTEuNTUsMC0yLjcyLTEuMzYtMi43Mi0yLjkyVjMxLjM5YzAtMS41NiwxLjE3LTIuOTIsMi43Mi0yLjkyaDUwLjM3ICAgICAgIGMwLjU4LDAsMS41NSwwLDguMTcsMTIuNDVsMC4xOSwwLjU4bC0wLjE5LDAuNThDNjMuMzksNTMuNTYsNjIuNDIsNTMuNTYsNjEuODQsNTMuNTZ6Ii8+JiN4YTsJCQkJPC9nPiYjeGE7CQkJCTxnIGlkPSJzaGFwZTI4Mi0xMyIgdHJhbnNmb3JtPSJ0cmFuc2xhdGUoMTYuOTE4MSwtMjkuOTQ3KSI+JiN4YTsJCQkJCTx0aXRsZSBpZD0idGl0bGUxMDk1NTQiPlNoZWV0LjI4MjwvdGl0bGU+JiN4YTsJCQkJCTxwYXRoIGlkPSJwYXRoMTA5NTU2IiBpbmtzY2FwZTpjb25uZWN0b3ItY3VydmF0dXJlPSIwIiBzdHlsZT0iZmlsbDojMDA3OEQ3OyIgZD0iTTE2LjE0LDY1LjYxSDBsNy45Nyw2LjIzTDE2LjE0LDY1LjYxeiIvPiYjeGE7CQkJCTwvZz4mI3hhOwkJCQk8ZyBpZD0ic2hhcGUyODMtMTUiIHRyYW5zZm9ybT0idHJhbnNsYXRlKDEwLjY5NTQsLTIwLjIyNCkiPiYjeGE7CQkJCQk8dGl0bGUgaWQ9InRpdGxlMTA5NTU5Ij5TaGVldC4yODM8L3RpdGxlPiYjeGE7CQkJCQk8cGF0aCBpZD0icGF0aDEwOTU2MSIgaW5rc2NhcGU6Y29ubmVjdG9yLWN1cnZhdHVyZT0iMCIgc3R5bGU9ImZpbGw6IzAwNzhENzsiIGQ9Ik0wLjc4LDUwLjgzQzAuMzksNTAuODMsMCw1MS4yMiwwLDUxLjYxICAgICAgIHYxOS4yNWMwLDAuMzksMC4zOSwwLjk4LDAuNzgsMC45OGg0OS45N2MwLjk4LTAuOTgsMy44OS01LjY0LDYuNDItMTAuMTJjLTIuNTMtNC44Ni01LjY0LTkuOTEtNi40Mi0xMC44OUwwLjc4LDUwLjgzeiAgICAgICAgTTI1LjI4LDY4LjcyYzAsMC41OS0wLjU4LDEuMTctMS4zNiwxLjE3SDQuODZjLTAuNTgsMC0wLjc4LTAuNTgtMC43OC0xLjE3VjU0LjUzYzAtMC41OCwwLjItMC43OCwwLjc4LTAuNzhoMTkuMDYgICAgICAgYzAuNTgsMCwxLjM2LDAuMiwxLjM2LDAuNzhMMjUuMjgsNjguNzJ6IE00OS4yLDY4LjcyYzAsMC41OS0wLjM5LDEuMTctMC45NywxLjE3SDI5LjM2Yy0wLjU4LDAtMC45Ny0wLjU4LTAuOTctMS4xN1Y1NC41MyAgICAgICBjMC0wLjU4LDAuMzktMC43OCwwLjk3LTAuNzhoMTguODdjMC41OCwwLDAuOTcsMC4yLDAuOTcsMC43OEw0OS4yLDY4LjcyeiIvPiYjeGE7CQkJCTwvZz4mI3hhOwkJCTwvZz4mI3hhOwkJPC9nPiYjeGE7CTwvZz4mI3hhOzwvZz4mI3hhOzwvc3ZnPg==;fontColor=#0B4FA8;" parent="1" vertex="1">
          <mxGeometry x="711" y="516" width="58.97" height="51" as="geometry" />
        </mxCell>
        <mxCell id="p4TXbPgcI1VuwZD0pCjf-11" value="&lt;font color=&quot;#0b4fa8&quot;&gt;&amp;lt;LawDepot DR: #1383763&amp;gt;&lt;br&gt;Azure Subscription&lt;br&gt;&lt;/font&gt;" style="verticalLabelPosition=bottom;html=1;verticalAlign=top;align=center;strokeColor=none;fillColor=#00BEF2;shape=mxgraph.azure.azure_subscription;" parent="1" vertex="1">
          <mxGeometry x="1083" y="781" width="29" height="21" as="geometry" />
        </mxCell>
        <mxCell id="p4TXbPgcI1VuwZD0pCjf-14" value="&lt;font color=&quot;#0b4fa8&quot;&gt;&amp;lt;LawdepotDevOps-RG&amp;gt;&lt;br&gt;Resource Group&lt;/font&gt;" style="image;aspect=fixed;html=1;points=[];align=center;fontSize=12;image=img/lib/azure2/general/Resource_Groups.svg;" parent="1" vertex="1">
          <mxGeometry x="147" y="725" width="31.25" height="29.41" as="geometry" />
        </mxCell>
        <mxCell id="p4TXbPgcI1VuwZD0pCjf-15" value="&lt;font color=&quot;#0b4fa8&quot;&gt;&amp;lt;server-traffic-config&amp;gt;&lt;br&gt;Blob containers&lt;/font&gt;" style="image;aspect=fixed;html=1;points=[];align=center;fontSize=12;image=img/lib/azure2/general/Storage_Container.svg;" parent="1" vertex="1">
          <mxGeometry x="148" y="203" width="28.31" height="23" as="geometry" />
        </mxCell>
        <mxCell id="p4TXbPgcI1VuwZD0pCjf-16" value="" style="rounded=0;whiteSpace=wrap;html=1;fillColor=none;dashed=1;strokeWidth=0.7;strokeColor=#0B4FA8;" parent="1" vertex="1">
          <mxGeometry x="-203" y="432" width="836" height="447" as="geometry" />
        </mxCell>
        <mxCell id="p4TXbPgcI1VuwZD0pCjf-17" value="&lt;ASP-LawdepotDevOpsRG-98ff&gt;&#xa;App Service plan" style="shape=image;verticalLabelPosition=bottom;labelBackgroundColor=none;verticalAlign=top;aspect=fixed;imageAspect=0;image=data:image/svg+xml,PHN2ZyB4bWxuczpjYz0iaHR0cDovL2NyZWF0aXZlY29tbW9ucy5vcmcvbnMjIiB4bWxuczpkYz0iaHR0cDovL3B1cmwub3JnL2RjL2VsZW1lbnRzLzEuMS8iIHhtbG5zOmlua3NjYXBlPSJodHRwOi8vd3d3Lmlua3NjYXBlLm9yZy9uYW1lc3BhY2VzL2lua3NjYXBlIiB4bWxuczpyZGY9Imh0dHA6Ly93d3cudzMub3JnLzE5OTkvMDIvMjItcmRmLXN5bnRheC1ucyMiIHhtbG5zOnNvZGlwb2RpPSJodHRwOi8vc29kaXBvZGkuc291cmNlZm9yZ2UubmV0L0RURC9zb2RpcG9kaS0wLmR0ZCIgeG1sbnM6c3ZnPSJodHRwOi8vd3d3LnczLm9yZy8yMDAwL3N2ZyIgeG1sbnM9Imh0dHA6Ly93d3cudzMub3JnLzIwMDAvc3ZnIiB4bWxuczp4bGluaz0iaHR0cDovL3d3dy53My5vcmcvMTk5OS94bGluayIgdmVyc2lvbj0iMS4xIiBpZD0ic3ZnNDkwODMiIGlua3NjYXBlOnZlcnNpb249IjAuOTIuMyAoMjQwNTU0NiwgMjAxOC0wMy0xMSkiIHNvZGlwb2RpOmRvY25hbWU9ImFwcF9zZXJ2aWNlX3BsYW5zLnN2ZyIgeD0iMHB4IiB5PSIwcHgiIHZpZXdCb3g9IjAgMCAyNS4xNCAyNS4xMyIgc3R5bGU9ImVuYWJsZS1iYWNrZ3JvdW5kOm5ldyAwIDAgMjUuMTQgMjUuMTM7IiB4bWw6c3BhY2U9InByZXNlcnZlIj4mI3hhOzxzb2RpcG9kaTpuYW1lZHZpZXcgYm9yZGVyY29sb3I9IiM2NjY2NjYiIGJvcmRlcm9wYWNpdHk9IjEiIGZpdC1tYXJnaW4tYm90dG9tPSIwIiBmaXQtbWFyZ2luLWxlZnQ9IjAiIGZpdC1tYXJnaW4tcmlnaHQ9IjAiIGZpdC1tYXJnaW4tdG9wPSIwIiBncmlkdG9sZXJhbmNlPSIxMCIgZ3VpZGV0b2xlcmFuY2U9IjEwIiBpZD0ibmFtZWR2aWV3NDkwODUiIGlua3NjYXBlOmN1cnJlbnQtbGF5ZXI9InN2ZzQ5MDgzIiBpbmtzY2FwZTpjeD0iMTIuMTY0NDY2IiBpbmtzY2FwZTpjeT0iMTQuNDkzNjA4IiBpbmtzY2FwZTpwYWdlb3BhY2l0eT0iMCIgaW5rc2NhcGU6cGFnZXNoYWRvdz0iMiIgaW5rc2NhcGU6d2luZG93LWhlaWdodD0iMTAxNyIgaW5rc2NhcGU6d2luZG93LW1heGltaXplZD0iMSIgaW5rc2NhcGU6d2luZG93LXdpZHRoPSIxOTIwIiBpbmtzY2FwZTp3aW5kb3cteD0iLTgiIGlua3NjYXBlOndpbmRvdy15PSItOCIgaW5rc2NhcGU6em9vbT0iMTYuMjg1MTQ4IiBvYmplY3R0b2xlcmFuY2U9IjEwIiBwYWdlY29sb3I9IiNmZmZmZmYiIHNob3dncmlkPSJmYWxzZSI+JiN4YTsJPC9zb2RpcG9kaTpuYW1lZHZpZXc+JiN4YTs8ZyBpZD0iZzQ5MDgxIiB0cmFuc2Zvcm09InRyYW5zbGF0ZSgwLC0wLjAwNDU0MDUpIj4mI3hhOwk8dGl0bGUgaWQ9InRpdGxlNDkwMzYiPlBhZ2UtMTwvdGl0bGU+JiN4YTsJPGcgaWQ9Imdyb3VwNDcwOS0xIiB0cmFuc2Zvcm09InRyYW5zbGF0ZSgwLC0zLjA5ODczKSI+JiN4YTsJCTx0aXRsZSBpZD0idGl0bGU0OTAzOCI+QXBwIFNlcnZpY2UgcGxhbnM8L3RpdGxlPiYjeGE7CQk8ZyBpZD0ic2hhcGU0NzEwLTIiIHRyYW5zZm9ybT0idHJhbnNsYXRlKDAsLTAuMDA2NzI5NSkiPiYjeGE7CQkJPHRpdGxlIGlkPSJ0aXRsZTQ5MDQwIj5TaGVldC40NzEwPC90aXRsZT4mI3hhOwkJCTxwYXRoIGlkPSJwYXRoNDkwNDIiIGlua3NjYXBlOmNvbm5lY3Rvci1jdXJ2YXR1cmU9IjAiIHN0eWxlPSJmaWxsOiMzRTNFM0U7IiBkPSJNMCwzLjk1YzAtMC40NiwwLjM4LTAuODQsMC44NS0wLjg0aDEzLjAyICAgICBjMC40NywwLDAuODQsMC4zOCwwLjg0LDAuODR2MjMuNDRjMCwwLjQ3LTAuMzcsMC44NC0wLjg0LDAuODRIMC44NUMwLjM4LDI4LjIzLDAsMjcuODYsMCwyNy4zOVYzLjk1eiIvPiYjeGE7CQk8L2c+JiN4YTsJCTxnIGlkPSJzaGFwZTQ3MTEtNCIgdHJhbnNmb3JtPSJ0cmFuc2xhdGUoMi4yNDQ2NiwtMTkuNzI2OSkiPiYjeGE7CQkJPHRpdGxlIGlkPSJ0aXRsZTQ5MDQ1Ij5TaGVldC40NzExPC90aXRsZT4mI3hhOwkJCTxwYXRoIGlkPSJwYXRoNDkwNDciIGlua3NjYXBlOmNvbm5lY3Rvci1jdXJ2YXR1cmU9IjAiIHN0eWxlPSJmaWxsOiMxRTFFMUU7IiBkPSJNMC44NywyNS40OWMwLDAtMC44NywwLTAuODcsMS4yNSAgICAgYzAsMC4yNywwLDAuMjcsMCwwLjI3czAsMS4yMiwwLjg3LDEuMjJjOC41LDAsOC41LDAsOC41LDBzMC44NiwwLDAuODYtMS4yMmMwLTAuMjcsMC0wLjI3LDAtMC4yN3MwLTEuMjUtMC44Ni0xLjI1ICAgICBjLTMuOTUsMC0zLjk1LDAtMy45NSwwSDAuODd6Ii8+JiN4YTsJCTwvZz4mI3hhOwkJPGcgaWQ9InNoYXBlNDcxMi02IiB0cmFuc2Zvcm09InRyYW5zbGF0ZSgyLjQ5NDA2LC0xOS44MTAxKSI+JiN4YTsJCQk8dGl0bGUgaWQ9InRpdGxlNDkwNTAiPlNoZWV0LjQ3MTI8L3RpdGxlPiYjeGE7CQkJPHBhdGggaWQ9InBhdGg0OTA1MiIgaW5rc2NhcGU6Y29ubmVjdG9yLWN1cnZhdHVyZT0iMCIgc3R5bGU9ImZpbGw6I0I4RDQzMjsiIGQ9Ik0wLDI2LjkzYzAtMC42OCwwLjU4LTEuMjgsMS4yNi0xLjI4ICAgICBjMC42OSwwLDEuMjMsMC42LDEuMjMsMS4yOGMwLDAuNzQtMC41NCwxLjMtMS4yMywxLjNDMC41OCwyOC4yMywwLDI3LjY3LDAsMjYuOTN6Ii8+JiN4YTsJCTwvZz4mI3hhOwkJPGcgaWQ9InNoYXBlNDcxMy04IiB0cmFuc2Zvcm09InRyYW5zbGF0ZSgyLjI0NDY2LC0xNS4wNjczKSI+JiN4YTsJCQk8dGl0bGUgaWQ9InRpdGxlNDkwNTUiPlNoZWV0LjQ3MTM8L3RpdGxlPiYjeGE7CQkJPHBhdGggaWQ9InBhdGg0OTA1NyIgaW5rc2NhcGU6Y29ubmVjdG9yLWN1cnZhdHVyZT0iMCIgc3R5bGU9ImZpbGw6IzFFMUUxRTsiIGQ9Ik0wLjg3LDI1LjQ5YzAsMC0wLjg3LDAtMC44NywxLjI1ICAgICBjMCwwLjI3LDAsMC4yNywwLDAuMjdzMCwxLjIyLDAuODcsMS4yMmM4LjUsMCw4LjUsMCw4LjUsMHMwLjg2LDAsMC44Ni0xLjIyYzAtMC4yNywwLTAuMjcsMC0wLjI3czAtMS4yNS0wLjg2LTEuMjUgICAgIGMtMy45NSwwLTMuOTUsMC0zLjk1LDBIMC44N3oiLz4mI3hhOwkJPC9nPiYjeGE7CQk8ZyBpZD0ic2hhcGU0NzE0LTEwIiB0cmFuc2Zvcm09InRyYW5zbGF0ZSgyLjQ5NDA2LC0xNS4xNTA1KSI+JiN4YTsJCQk8dGl0bGUgaWQ9InRpdGxlNDkwNjAiPlNoZWV0LjQ3MTQ8L3RpdGxlPiYjeGE7CQkJPHBhdGggaWQ9InBhdGg0OTA2MiIgaW5rc2NhcGU6Y29ubmVjdG9yLWN1cnZhdHVyZT0iMCIgc3R5bGU9ImZpbGw6I0I4RDQzMjsiIGQ9Ik0wLDI2LjkzYzAtMC42OCwwLjU4LTEuMjgsMS4yNi0xLjI4ICAgICBjMC42OSwwLDEuMjMsMC42LDEuMjMsMS4yOGMwLDAuNzQtMC41NCwxLjMtMS4yMywxLjNDMC41OCwyOC4yMywwLDI3LjY3LDAsMjYuOTN6Ii8+JiN4YTsJCTwvZz4mI3hhOwkJPGcgaWQ9InNoYXBlNDcxNS0xMiIgdHJhbnNmb3JtPSJ0cmFuc2xhdGUoMi4yNDQ2NiwtMTAuNDA3NykiPiYjeGE7CQkJPHRpdGxlIGlkPSJ0aXRsZTQ5MDY1Ij5TaGVldC40NzE1PC90aXRsZT4mI3hhOwkJCTxwYXRoIGlkPSJwYXRoNDkwNjciIGlua3NjYXBlOmNvbm5lY3Rvci1jdXJ2YXR1cmU9IjAiIHN0eWxlPSJmaWxsOiMxRTFFMUU7IiBkPSJNMC44NywyNS40MWMwLDAtMC44NywwLTAuODcsMS4yOCAgICAgYzAsMC4yOCwwLDAuMjgsMCwwLjI4czAsMS4yNiwwLjg3LDEuMjZjOC41LDAsOC41LDAsOC41LDBzMC44NiwwLDAuODYtMS4yNmMwLTAuMjgsMC0wLjI4LDAtMC4yOHMwLTEuMjgtMC44Ni0xLjI4ICAgICBjLTMuOTUsMC0zLjk1LDAtMy45NSwwSDAuODd6Ii8+JiN4YTsJCTwvZz4mI3hhOwkJPGcgaWQ9InNoYXBlNDcxNi0xNCIgdHJhbnNmb3JtPSJ0cmFuc2xhdGUoMi40OTQwNiwtMTAuNDkwOSkiPiYjeGE7CQkJPHRpdGxlIGlkPSJ0aXRsZTQ5MDcwIj5TaGVldC40NzE2PC90aXRsZT4mI3hhOwkJCTxwYXRoIGlkPSJwYXRoNDkwNzIiIGlua3NjYXBlOmNvbm5lY3Rvci1jdXJ2YXR1cmU9IjAiIHN0eWxlPSJmaWxsOiNCOEQ0MzI7IiBkPSJNMCwyNi45M2MwLTAuNjgsMC41OC0xLjI4LDEuMjYtMS4yOCAgICAgYzAuNjksMCwxLjIzLDAuNiwxLjIzLDEuMjhjMCwwLjc0LTAuNTQsMS4zLTEuMjMsMS4zQzAuNTgsMjguMjMsMCwyNy42NywwLDI2LjkzeiIvPiYjeGE7CQk8L2c+JiN4YTsJCTxnIGlkPSJzaGFwZTQ3MTctMTYiIHRyYW5zZm9ybT0idHJhbnNsYXRlKDQuMTk2OCkiPiYjeGE7CQkJPHRpdGxlIGlkPSJ0aXRsZTQ5MDc1Ij5DbG91ZCAjNjwvdGl0bGU+JiN4YTsJCQk8cGF0aCBpZD0icGF0aDQ5MDc3IiBpbmtzY2FwZTpjb25uZWN0b3ItY3VydmF0dXJlPSIwIiBzdHlsZT0iZmlsbDojNTlCNEQ5OyIgZD0iTTIwLjk0LDI1Ljg0YzAtMS4zNi0xLjEyLTIuNDgtMi40LTIuNDggICAgIGMtMC4wOCwwLTAuMTYsMC0wLjMyLDBjMC4xNi0wLjU2LDAuMjQtMS4xMiwwLjI0LTEuNzZjMC0zLjYtMi44OC02LjU1LTYuNDctNi41NWMtMi44OCwwLTUuMjgsMS44NC02LjE2LDQuNDcgICAgIGMtMC40OC0wLjE2LTAuOTUtMC4yNC0xLjQzLTAuMjRjLTIuNDgsMC00LjQsMi00LjQsNC40OHMyLDQuNDcsNC40LDQuNDdoMTQuMzhDMTkuOTgsMjguMTUsMjAuOTQsMjcuMTIsMjAuOTQsMjUuODR6Ii8+JiN4YTsJCTwvZz4mI3hhOwk8L2c+JiN4YTs8L2c+JiN4YTs8L3N2Zz4=;fontColor=#0B4FA8;" parent="1" vertex="1">
          <mxGeometry x="1022" y="653" width="31" height="31" as="geometry" />
        </mxCell>
        <mxCell id="p4TXbPgcI1VuwZD0pCjf-18" value="" style="rounded=0;whiteSpace=wrap;html=1;fillColor=none;dashed=1;strokeWidth=0.7;strokeColor=#0B4FA8;" parent="1" vertex="1">
          <mxGeometry x="627" y="-2" width="120" height="447" as="geometry" />
        </mxCell>
        <mxCell id="p4TXbPgcI1VuwZD0pCjf-19" value="&lt;trafficlights&gt;&#xa;Storage account" style="shape=image;verticalLabelPosition=bottom;verticalAlign=top;imageAspect=0;aspect=fixed;image=data:image/svg+xml,PHN2ZyB4bWxuczpkYz0iaHR0cDovL3B1cmwub3JnL2RjL2VsZW1lbnRzLzEuMS8iIHhtbG5zOmNjPSJodHRwOi8vY3JlYXRpdmVjb21tb25zLm9yZy9ucyMiIHhtbG5zOnJkZj0iaHR0cDovL3d3dy53My5vcmcvMTk5OS8wMi8yMi1yZGYtc3ludGF4LW5zIyIgeG1sbnM6c3ZnPSJodHRwOi8vd3d3LnczLm9yZy8yMDAwL3N2ZyIgeG1sbnM9Imh0dHA6Ly93d3cudzMub3JnLzIwMDAvc3ZnIiB4bWxuczpzb2RpcG9kaT0iaHR0cDovL3NvZGlwb2RpLnNvdXJjZWZvcmdlLm5ldC9EVEQvc29kaXBvZGktMC5kdGQiIHhtbG5zOmlua3NjYXBlPSJodHRwOi8vd3d3Lmlua3NjYXBlLm9yZy9uYW1lc3BhY2VzL2lua3NjYXBlIiB2ZXJzaW9uPSIxLjEiIGlkPSJMYXllcl8xIiB4PSIwcHgiIHk9IjBweCIgd2lkdGg9IjUwIiBoZWlnaHQ9IjQyLjkwMDAwMiIgdmlld0JveD0iMCAwIDUwIDQyLjkwMDAwMiIgZW5hYmxlLWJhY2tncm91bmQ9Im5ldyAwIDAgNTAgNTAiIHhtbDpzcGFjZT0icHJlc2VydmUiIHNvZGlwb2RpOmRvY25hbWU9InN0b3JhZ2VfYWNjb3VudHNfY2xhc3NpYy5zdmciIGlua3NjYXBlOnZlcnNpb249IjAuOTIuMyAoMjQwNTU0NiwgMjAxOC0wMy0xMSkiPjxtZXRhZGF0YSBpZD0ibWV0YWRhdGExMDgwOSI+PHJkZjpSREY+PGNjOldvcmsgcmRmOmFib3V0PSIiPjxkYzpmb3JtYXQ+aW1hZ2Uvc3ZnK3htbDwvZGM6Zm9ybWF0PjxkYzp0eXBlIHJkZjpyZXNvdXJjZT0iaHR0cDovL3B1cmwub3JnL2RjL2RjbWl0eXBlL1N0aWxsSW1hZ2UiLz48ZGM6dGl0bGUvPjwvY2M6V29yaz48L3JkZjpSREY+PC9tZXRhZGF0YT48ZGVmcyBpZD0iZGVmczEwODA3Ii8+PHNvZGlwb2RpOm5hbWVkdmlldyBwYWdlY29sb3I9IiNmZmZmZmYiIGJvcmRlcmNvbG9yPSIjNjY2NjY2IiBib3JkZXJvcGFjaXR5PSIxIiBvYmplY3R0b2xlcmFuY2U9IjEwIiBncmlkdG9sZXJhbmNlPSIxMCIgZ3VpZGV0b2xlcmFuY2U9IjEwIiBpbmtzY2FwZTpwYWdlb3BhY2l0eT0iMCIgaW5rc2NhcGU6cGFnZXNoYWRvdz0iMiIgaW5rc2NhcGU6d2luZG93LXdpZHRoPSIxOTIwIiBpbmtzY2FwZTp3aW5kb3ctaGVpZ2h0PSIxMDE3IiBpZD0ibmFtZWR2aWV3MTA4MDUiIHNob3dncmlkPSJmYWxzZSIgZml0LW1hcmdpbi10b3A9IjAiIGZpdC1tYXJnaW4tbGVmdD0iMCIgZml0LW1hcmdpbi1yaWdodD0iMCIgZml0LW1hcmdpbi1ib3R0b209IjAiIGlua3NjYXBlOnpvb209IjE3IiBpbmtzY2FwZTpjeD0iMjUiIGlua3NjYXBlOmN5PSIyMiIgaW5rc2NhcGU6d2luZG93LXg9Ii04IiBpbmtzY2FwZTp3aW5kb3cteT0iLTgiIGlua3NjYXBlOndpbmRvdy1tYXhpbWl6ZWQ9IjEiIGlua3NjYXBlOmN1cnJlbnQtbGF5ZXI9IkxheWVyXzEiLz4mI3hhOzxwYXRoIGQ9Im0gMCw0MSBjIDAsMSAwLjgsMS45IDEuOCwxLjkgaCA0Ni4zIGMgMSwwIDEuOSwtMC44IDEuOSwtMS45IFYgNy45IEggMCBaIiBpZD0icGF0aDEwNzk0IiBpbmtzY2FwZTpjb25uZWN0b3ItY3VydmF0dXJlPSIwIiBzdHlsZT0iZmlsbDojNTliNGQ5Ii8+JiN4YTs8cGF0aCBkPSJNIDQ4LjEsMCBIIDEuOCBDIDAuOCwwIDAsMC45IDAsMS45IHYgNiBoIDUwIHYgLTYgYyAwLC0xIC0wLjgsLTEuNiAtMS45LC0xLjYiIGlkPSJwYXRoMTA3OTYiIGlua3NjYXBlOmNvbm5lY3Rvci1jdXJ2YXR1cmU9IjAiIHN0eWxlPSJmaWxsOiMwMDcyYzYiLz4mI3hhOzxyZWN0IHg9IjQiIHk9IjIxLjQiIHdpZHRoPSI0MiIgaGVpZ2h0PSI3IiBpZD0icmVjdDEwNzk4IiBzdHlsZT0iZmlsbDojMDA3MmM2Ii8+JiN4YTs8cmVjdCB4PSI0IiB5PSIxMC45IiB3aWR0aD0iNDIiIGhlaWdodD0iNyIgaWQ9InJlY3QxMDgwMCIgc3R5bGU9ImZpbGw6I2ZmZmZmZiIvPiYjeGE7PHJlY3QgeD0iNCIgeT0iMzEuOSIgd2lkdGg9IjQyIiBoZWlnaHQ9IjciIGlkPSJyZWN0MTA4MDIiIHN0eWxlPSJmaWxsOiMwMDcyYzYiLz4mI3hhOzwvc3ZnPg==;fontColor=#0B4FA8;labelBackgroundColor=none;" parent="1" vertex="1">
          <mxGeometry x="154" y="300" width="25.59" height="22" as="geometry" />
        </mxCell>
        <mxCell id="p4TXbPgcI1VuwZD0pCjf-22" value="" style="image;aspect=fixed;html=1;points=[];align=center;fontSize=12;image=img/lib/azure2/general/Blob_Page.svg;" parent="1" vertex="1">
          <mxGeometry x="944" y="450" width="65" height="52" as="geometry" />
        </mxCell>
        <mxCell id="p4TXbPgcI1VuwZD0pCjf-24" value="&lt;font color=&quot;#0b4fa8&quot;&gt;&lt;b&gt;&amp;lt;ServerDetails.json&amp;gt;&lt;br&gt;Block blob&lt;/b&gt;&lt;/font&gt;" style="verticalLabelPosition=bottom;html=1;verticalAlign=top;align=center;strokeColor=none;fillColor=#00BEF2;shape=mxgraph.azure.storage_blob;" parent="1" vertex="1">
          <mxGeometry x="124" y="62" width="50" height="45" as="geometry" />
        </mxCell>
        <mxCell id="p4TXbPgcI1VuwZD0pCjf-26" value="&lt;font color=&quot;#0b4fa8&quot;&gt;&amp;lt;CCAppVault&amp;gt;&lt;br&gt;Key vault&lt;/font&gt;" style="image;aspect=fixed;html=1;points=[];align=center;fontSize=12;image=img/lib/azure2/security/Key_Vaults.svg;" parent="1" vertex="1">
          <mxGeometry x="826" y="283" width="54" height="54" as="geometry" />
        </mxCell>
        <mxCell id="7XDqLgwCtR31HvtdAByz-3" value="Azure Pipelines Service" style="text;html=1;align=center;verticalAlign=middle;resizable=0;points=[];autosize=1;strokeColor=none;fillColor=none;fontColor=#0000FF;" vertex="1" parent="1">
          <mxGeometry x="-2637" y="-621" width="145" height="26" as="geometry" />
        </mxCell>
        <mxCell id="7XDqLgwCtR31HvtdAByz-4" value="Agent pools" style="text;html=1;align=center;verticalAlign=middle;resizable=0;points=[];autosize=1;strokeColor=none;fillColor=none;" vertex="1" parent="1">
          <mxGeometry x="-2604" y="-588" width="81" height="26" as="geometry" />
        </mxCell>
        <mxCell id="7XDqLgwCtR31HvtdAByz-5" value="&amp;nbsp; &amp;nbsp; Default" style="text;html=1;align=center;verticalAlign=middle;resizable=0;points=[];autosize=1;strokeColor=#6c8ebf;fillColor=#dae8fc;labelBorderColor=none;" vertex="1" parent="1">
          <mxGeometry x="-2674" y="-558" width="69" height="26" as="geometry" />
        </mxCell>
        <mxCell id="7XDqLgwCtR31HvtdAByz-6" value="&amp;nbsp; &amp;nbsp; &amp;nbsp; Hosted" style="text;html=1;align=center;verticalAlign=middle;resizable=0;points=[];autosize=1;strokeColor=#6c8ebf;fillColor=#dae8fc;labelBorderColor=none;spacingTop=0;spacing=2;" vertex="1" parent="1">
          <mxGeometry x="-2528" y="-558" width="76" height="24" as="geometry" />
        </mxCell>
        <mxCell id="7XDqLgwCtR31HvtdAByz-10" value="" style="line;strokeWidth=0.5;html=1;strokeColor=#0000CC;" vertex="1" parent="1">
          <mxGeometry x="-2690" y="-598" width="257" height="10" as="geometry" />
        </mxCell>
        <mxCell id="7XDqLgwCtR31HvtdAByz-11" value="" style="sketch=0;outlineConnect=0;fontColor=#232F3E;gradientColor=none;fillColor=#232F3D;strokeColor=none;dashed=0;verticalLabelPosition=bottom;verticalAlign=top;align=center;html=1;fontSize=12;fontStyle=0;aspect=fixed;pointerEvents=1;shape=mxgraph.aws4.traditional_server;" vertex="1" parent="1">
          <mxGeometry x="-2668" y="-551" width="7.5" height="13" as="geometry" />
        </mxCell>
        <mxCell id="7XDqLgwCtR31HvtdAByz-13" value="" style="html=1;verticalLabelPosition=bottom;align=center;labelBackgroundColor=#ffffff;verticalAlign=top;strokeWidth=0.5;strokeColor=#000000;shadow=0;dashed=0;shape=mxgraph.ios7.icons.cloud;fillColor=none;" vertex="1" parent="1">
          <mxGeometry x="-2522" y="-551" width="16" height="10" as="geometry" />
        </mxCell>
        <mxCell id="7XDqLgwCtR31HvtdAByz-14" value="" style="rounded=0;whiteSpace=wrap;html=1;labelBackgroundColor=none;textOpacity=0;strokeWidth=0.5;strokeColor=#1a1ab7;" vertex="1" parent="1">
          <mxGeometry x="-2312" y="-583" width="151" height="75" as="geometry" />
        </mxCell>
        <mxCell id="7XDqLgwCtR31HvtdAByz-15" value="Microsoft-hosted agents" style="text;html=1;align=center;verticalAlign=middle;resizable=0;points=[];autosize=1;strokeColor=none;fillColor=none;" vertex="1" parent="1">
          <mxGeometry x="-2310" y="-578" width="146" height="26" as="geometry" />
        </mxCell>
        <mxCell id="7XDqLgwCtR31HvtdAByz-16" value="1" style="whiteSpace=wrap;html=1;aspect=fixed;fillColor=#ffe6cc;strokeColor=#d79b00;" vertex="1" parent="1">
          <mxGeometry x="-2301" y="-544" width="29" height="29" as="geometry" />
        </mxCell>
        <mxCell id="7XDqLgwCtR31HvtdAByz-17" value="2" style="whiteSpace=wrap;html=1;aspect=fixed;fillColor=#ffe6cc;strokeColor=#d79b00;" vertex="1" parent="1">
          <mxGeometry x="-2262" y="-544" width="29" height="29" as="geometry" />
        </mxCell>
        <mxCell id="7XDqLgwCtR31HvtdAByz-18" style="edgeStyle=orthogonalEdgeStyle;rounded=0;orthogonalLoop=1;jettySize=auto;html=1;entryX=1.012;entryY=0.53;entryDx=0;entryDy=0;entryPerimeter=0;strokeWidth=0.5;endSize=4;" edge="1" parent="1" source="7XDqLgwCtR31HvtdAByz-14" target="7XDqLgwCtR31HvtdAByz-6">
          <mxGeometry relative="1" as="geometry" />
        </mxCell>
        <mxCell id="7XDqLgwCtR31HvtdAByz-29" style="edgeStyle=orthogonalEdgeStyle;rounded=0;orthogonalLoop=1;jettySize=auto;html=1;strokeWidth=0.5;endSize=4;startSize=4;" edge="1" parent="1" source="7XDqLgwCtR31HvtdAByz-19" target="7XDqLgwCtR31HvtdAByz-5">
          <mxGeometry relative="1" as="geometry" />
        </mxCell>
        <mxCell id="7XDqLgwCtR31HvtdAByz-19" value="" style="rounded=0;whiteSpace=wrap;html=1;labelBackgroundColor=none;textOpacity=0;strokeWidth=0.5;" vertex="1" parent="1">
          <mxGeometry x="-2813" y="-407" width="151" height="75" as="geometry" />
        </mxCell>
        <mxCell id="7XDqLgwCtR31HvtdAByz-20" value="CorpBuild-5 agents" style="text;html=1;align=center;verticalAlign=middle;resizable=0;points=[];autosize=1;strokeColor=none;fillColor=none;" vertex="1" parent="1">
          <mxGeometry x="-2797" y="-402" width="121" height="26" as="geometry" />
        </mxCell>
        <mxCell id="7XDqLgwCtR31HvtdAByz-21" value="1" style="whiteSpace=wrap;html=1;aspect=fixed;fillColor=#f8cecc;strokeColor=#b85450;" vertex="1" parent="1">
          <mxGeometry x="-2791" y="-370" width="29" height="29" as="geometry" />
        </mxCell>
        <mxCell id="7XDqLgwCtR31HvtdAByz-22" value="2" style="whiteSpace=wrap;html=1;aspect=fixed;fillColor=#f8cecc;strokeColor=#b85450;" vertex="1" parent="1">
          <mxGeometry x="-2752" y="-370" width="29" height="29" as="geometry" />
        </mxCell>
        <mxCell id="7XDqLgwCtR31HvtdAByz-23" value="3" style="whiteSpace=wrap;html=1;aspect=fixed;fillColor=#f8cecc;strokeColor=#b85450;" vertex="1" parent="1">
          <mxGeometry x="-2712" y="-370" width="29" height="29" as="geometry" />
        </mxCell>
        <mxCell id="7XDqLgwCtR31HvtdAByz-30" style="edgeStyle=orthogonalEdgeStyle;rounded=0;orthogonalLoop=1;jettySize=auto;html=1;strokeWidth=0.5;endSize=4;startSize=4;endArrow=none;endFill=0;" edge="1" parent="1" source="7XDqLgwCtR31HvtdAByz-24">
          <mxGeometry relative="1" as="geometry">
            <mxPoint x="-2640" y="-470" as="targetPoint" />
            <Array as="points">
              <mxPoint x="-2568" y="-470" />
            </Array>
          </mxGeometry>
        </mxCell>
        <mxCell id="7XDqLgwCtR31HvtdAByz-24" value="" style="rounded=0;whiteSpace=wrap;html=1;labelBackgroundColor=none;textOpacity=0;strokeWidth=0.5;" vertex="1" parent="1">
          <mxGeometry x="-2637" y="-407" width="151" height="75" as="geometry" />
        </mxCell>
        <mxCell id="7XDqLgwCtR31HvtdAByz-25" value="CorpBuild-6 agents" style="text;html=1;align=center;verticalAlign=middle;resizable=0;points=[];autosize=1;strokeColor=none;fillColor=none;" vertex="1" parent="1">
          <mxGeometry x="-2621" y="-402" width="121" height="26" as="geometry" />
        </mxCell>
        <mxCell id="7XDqLgwCtR31HvtdAByz-26" value="1" style="whiteSpace=wrap;html=1;aspect=fixed;fillColor=#f8cecc;strokeColor=#b85450;" vertex="1" parent="1">
          <mxGeometry x="-2615" y="-370" width="29" height="29" as="geometry" />
        </mxCell>
        <mxCell id="7XDqLgwCtR31HvtdAByz-27" value="2" style="whiteSpace=wrap;html=1;aspect=fixed;fillColor=#f8cecc;strokeColor=#b85450;" vertex="1" parent="1">
          <mxGeometry x="-2576" y="-370" width="29" height="29" as="geometry" />
        </mxCell>
        <mxCell id="7XDqLgwCtR31HvtdAByz-28" value="3" style="whiteSpace=wrap;html=1;aspect=fixed;fillColor=#f8cecc;strokeColor=#b85450;" vertex="1" parent="1">
          <mxGeometry x="-2536" y="-370" width="29" height="29" as="geometry" />
        </mxCell>
        <mxCell id="7XDqLgwCtR31HvtdAByz-33" value="" style="rounded=0;whiteSpace=wrap;html=1;" vertex="1" parent="1">
          <mxGeometry x="-2399" y="-408" width="468" height="338" as="geometry" />
        </mxCell>
        <mxCell id="7XDqLgwCtR31HvtdAByz-34" value="" style="rounded=0;whiteSpace=wrap;html=1;" vertex="1" parent="1">
          <mxGeometry x="-2662" y="-277" width="120" height="60" as="geometry" />
        </mxCell>
        <mxCell id="7XDqLgwCtR31HvtdAByz-35" value="PRODWEB1" style="text;html=1;align=center;verticalAlign=middle;resizable=0;points=[];autosize=1;strokeColor=#36393d;fillColor=#eeeeee;" vertex="1" parent="1">
          <mxGeometry x="-2374" y="-371" width="87" height="26" as="geometry" />
        </mxCell>
        <mxCell id="7XDqLgwCtR31HvtdAByz-36" value="PRODWEB2" style="text;html=1;align=center;verticalAlign=middle;resizable=0;points=[];autosize=1;strokeColor=#36393d;fillColor=#eeeeee;" vertex="1" parent="1">
          <mxGeometry x="-2264" y="-371" width="87" height="26" as="geometry" />
        </mxCell>
        <mxCell id="7XDqLgwCtR31HvtdAByz-37" value="PRODWEB4" style="text;html=1;align=center;verticalAlign=middle;resizable=0;points=[];autosize=1;strokeColor=#36393d;fillColor=#eeeeee;" vertex="1" parent="1">
          <mxGeometry x="-2039" y="-371" width="87" height="26" as="geometry" />
        </mxCell>
        <mxCell id="7XDqLgwCtR31HvtdAByz-38" value="PRODWEB3" style="text;html=1;align=center;verticalAlign=middle;resizable=0;points=[];autosize=1;strokeColor=#36393d;fillColor=#eeeeee;" vertex="1" parent="1">
          <mxGeometry x="-2152" y="-371" width="87" height="26" as="geometry" />
        </mxCell>
      </root>
    </mxGraphModel>
  </diagram>
</mxfile>
